<svg id="svg" version="1.1" id="FUTURO_ICONS" xmlns="http://www.w3.org/2000/svg" x="0px"
								y="0px" width="501px" height="353px" viewBox="65.5 65.5 501 353" enableBackground="new 65.5 65.5 501 353">
								<g>
									<g>
											<g>
												<polygon fill="none" stroke="#727272" strokeWidth="2" strokeLinejoin="round" strokeMiterlimit="10" points="
														284.207,141.495 223.369,141.495 218.833,136.96 218.833,134.692 245.85,134.692 248.118,136.96 259.458,136.96 261.627,134.692 
														288.743,134.692 288.743,136.96 			"/>
												<path fill="none" stroke="#727272" strokeWidth="2" strokeLinejoin="round" strokeMiterlimit="10" d="M284.207,131.339V97.42
														c0-1.873-1.479-3.353-3.352-3.353h-54.133c-1.873,0-3.353,1.479-3.353,3.353v33.821"/>
												<line fill="none" stroke="#727272" strokeWidth="2" strokeLinejoin="round" strokeMiterlimit="10" x1="248.118" y1="127.888" x2="250.386" y2="127.888"/>
												<line fill="none" stroke="#727272" strokeWidth="2" strokeLinejoin="round" strokeMiterlimit="10" x1="243.583" y1="127.888" x2="245.85" y2="127.888"/>
												<line fill="none" stroke="#727272" strokeWidth="2" strokeLinejoin="round" strokeMiterlimit="10" x1="252.654" y1="127.888" x2="254.922" y2="127.888"/>
												<line fill="none" stroke="#727272" strokeWidth="2" strokeLinejoin="round" strokeMiterlimit="10" x1="257.19" y1="127.888" x2="259.458" y2="127.888"/>
												<line fill="none" stroke="#727272" strokeWidth="2" strokeLinejoin="round" strokeMiterlimit="10" x1="261.627" y1="127.888" x2="263.895" y2="127.888"/>
												<polyline fill="none" stroke="#727272" strokeWidth="2" strokeLinejoin="round" strokeMiterlimit="10" points="
														241.413,127.888 227.806,127.888 227.806,98.603 279.671,98.603 279.671,127.888 266.163,127.888 			"/>
											</g>
									</g>
								</g>
								<g>
									<g>
											<g>
												<path fill="none" stroke="#727272" strokeWidth="2" strokeLinejoin="round" strokeMiterlimit="10" d="M435.366,232.013
														c0.099-0.986,0.197-2.071,0.197-3.057c0-1.085-0.099-2.071-0.197-3.057l-4.339-1.085c-0.099-0.493-0.197-1.085-0.296-1.578
														l3.747-2.465c-0.493-1.972-1.282-3.944-2.071-5.818l-4.536,0.493c-0.296-0.493-0.493-0.986-0.789-1.38l2.662-3.648
														c-1.183-1.676-2.465-3.254-3.944-4.733l-4.043,1.972c-0.394-0.394-0.789-0.69-1.282-1.085l1.282-4.339
														c-1.676-1.183-3.451-2.268-5.325-3.057l-3.155,3.254c-0.493-0.197-0.986-0.394-1.479-0.592l-0.296-4.536
														c-1.972-0.493-4.043-0.887-6.113-1.085l-1.775,4.141c-0.296,0-0.493,0-0.789,0c-0.296,0-0.493,0-0.789,0l-1.775-4.141
														c-2.071,0.197-4.141,0.493-6.113,1.085l-0.296,4.536c-0.493,0.197-0.986,0.394-1.479,0.592l-3.155-3.254
														c-1.873,0.887-3.648,1.873-5.325,3.057l1.282,4.339c-0.394,0.296-0.789,0.69-1.282,1.085l-4.043-1.972
														c-1.479,1.479-2.761,3.057-3.944,4.733l2.662,3.648c-0.296,0.493-0.592,0.887-0.789,1.38l-4.536-0.493
														c-0.887,1.873-1.578,3.747-2.071,5.818l3.747,2.465c-0.099,0.493-0.197,1.085-0.296,1.578l-4.339,1.085
														c-0.099,0.986-0.197,2.071-0.197,3.057c0,1.085,0.099,2.071,0.197,3.057l4.339,1.085c0.099,0.493,0.197,1.085,0.296,1.578
														l-3.747,2.465c0.493,1.972,1.282,3.944,2.071,5.818l4.536-0.493c0.296,0.493,0.493,0.986,0.789,1.38l-2.662,3.648
														c1.183,1.676,2.465,3.254,3.944,4.733l4.043-1.972c0.394,0.394,0.789,0.69,1.282,1.085l-1.282,4.339
														c1.676,1.183,3.451,2.268,5.325,3.057l3.155-3.254c0.493,0.197,0.986,0.394,1.479,0.592l0.296,4.536
														c1.972,0.493,4.043,0.887,6.113,1.085l1.775-4.141c0.296,0,0.493,0,0.789,0c0.296,0,0.493,0,0.789,0l1.775,4.141
														c2.071-0.197,4.141-0.493,6.113-1.085l0.296-4.536c0.493-0.197,0.986-0.394,1.479-0.592l3.155,3.254
														c1.873-0.887,3.648-1.873,5.325-3.057l-1.282-4.339c0.394-0.296,0.789-0.69,1.282-1.085l4.043,1.972
														c1.479-1.479,2.761-3.057,3.944-4.733l-2.662-3.648c0.296-0.493,0.592-0.887,0.789-1.38l4.536,0.493
														c0.887-1.873,1.578-3.747,2.071-5.818l-3.845-2.465c0.099-0.493,0.197-1.085,0.296-1.578L435.366,232.013z"/>
												<path fill="none" stroke="#727272" strokeWidth="2" strokeLinejoin="round" strokeMiterlimit="10" d="M380.444,228.956
														c0-12.227,9.959-22.186,22.186-22.186"/>
												<path fill="none" stroke="#727272" strokeWidth="2" strokeLinejoin="round" strokeMiterlimit="10" d="M424.914,228.956
														c0,12.227-9.959,22.186-22.186,22.186"/>
												<path fill="none" stroke="#727272" strokeWidth="2" strokeLinejoin="round" strokeMiterlimit="10" d="M418.406,230.929
														c0.099-0.69,0.099-1.282,0.099-1.972s-0.099-1.38-0.099-1.972l-3.451-0.986c-0.197-0.592-0.296-1.282-0.592-1.873l2.169-2.859
														c-0.69-1.183-1.479-2.268-2.366-3.254l-3.353,1.183c-0.493-0.394-0.986-0.789-1.578-1.085l0.099-3.55
														c-1.183-0.592-2.465-0.986-3.747-1.282l-1.972,2.958c-0.296,0-0.592,0-0.986,0c-0.296,0-0.69,0-0.986,0l-1.972-2.958
														c-1.282,0.296-2.564,0.69-3.747,1.282l0.099,3.55c-0.592,0.296-1.085,0.69-1.578,1.085l-3.352-1.183
														c-0.887,0.986-1.676,2.071-2.366,3.254l2.169,2.859c-0.197,0.592-0.394,1.183-0.592,1.873l-3.451,0.986
														c-0.099,0.69-0.099,1.282-0.099,1.972s0.099,1.38,0.099,1.972l3.451,0.986c0.197,0.592,0.296,1.282,0.592,1.873l-2.169,2.859
														c0.69,1.183,1.479,2.268,2.366,3.254l3.352-1.183c0.493,0.394,0.986,0.789,1.578,1.085l-0.099,3.55
														c1.183,0.592,2.465,0.986,3.747,1.282l1.972-2.958c0.296,0,0.592,0,0.986,0c0.296,0,0.69,0,0.986,0l1.972,2.958
														c1.282-0.296,2.564-0.69,3.747-1.282l-0.099-3.55c0.592-0.296,1.085-0.69,1.578-1.085l3.353,1.183
														c0.887-0.986,1.676-2.071,2.366-3.254l-2.169-2.859c0.197-0.592,0.394-1.183,0.592-1.873L418.406,230.929z"/>
												<circle fill="none" stroke="#727272" strokeWidth="2" strokeLinejoin="round" strokeMiterlimit="10" cx="402.728" cy="228.956" r="6.311"/>
											</g>
									</g>
								</g>
								<g>
									<g>
											<polyline fill="none" stroke="#727272" strokeWidth="2" strokeLinejoin="round" strokeMiterlimit="10" points="
												457.453,135.382 447.888,135.382 447.888,145.045 438.225,135.382 430.928,135.382 430.928,104.026 476.779,104.026 
												476.779,135.382 473.131,135.382 		"/>
											<g>
												<rect x="430.928" y="149.877" fill="none" stroke="#727272" strokeWidth="2" strokeLinejoin="round" strokeMiterlimit="10" width="18.044" height="28.989"/>
												<path fill="none" stroke="#727272" strokeWidth="2" strokeLinejoin="round" strokeMiterlimit="10" d="M452.72,176.401
														l4.832,2.366h20.411c1.972,0,3.648-1.578,3.648-3.648c0-1.972-1.578-3.648-3.648-3.648h1.183c1.972,0,3.648-1.578,3.648-3.648
														c0-1.972-1.578-3.648-3.648-3.648h2.366c1.972,0,3.648-1.578,3.648-3.648c0-1.972-1.578-3.648-3.648-3.648h-1.183
														c1.972,0,3.648-1.578,3.648-3.648c0-1.972-1.578-3.648-3.648-3.648h-15.678l4.832-13.311v-2.366c0-1.972-1.578-3.648-3.648-3.648
														c-1.972,0-3.648,1.578-3.648,3.648l-3.648,7.198l-7.198,8.48h-2.366"/>
												<line fill="none" stroke="#727272" strokeWidth="2" strokeLinejoin="round" strokeMiterlimit="10" x1="444.24" y1="172.753" x2="444.24" y2="175.119"/>
											</g>
											<polyline fill="none" stroke="#727272" strokeWidth="2" strokeLinejoin="round" strokeMiterlimit="10" points="
												480.427,113.689 505.768,113.689 505.768,142.58 498.472,142.58 488.809,152.243 488.809,142.58 473.131,142.58 		"/>
											<g>
												<line fill="none" stroke="#727272" strokeWidth="2" strokeLinejoin="round" strokeMiterlimit="10" x1="447.888" y1="119.704" x2="450.255" y2="119.704"/>
												<line fill="none" stroke="#727272" strokeWidth="2" strokeLinejoin="round" strokeMiterlimit="10" x1="452.72" y1="119.704" x2="455.086" y2="119.704"/>
												<line fill="none" stroke="#727272" strokeWidth="2" strokeLinejoin="round" strokeMiterlimit="10" x1="457.453" y1="119.704" x2="459.918" y2="119.704"/>
											</g>
											<line fill="none" stroke="#727272" strokeWidth="2" strokeLinejoin="round" strokeMiterlimit="10" x1="499.754" y1="120.887" x2="480.427" y2="120.887"/>
											<line fill="none" stroke="#727272" strokeWidth="2" strokeLinejoin="round" strokeMiterlimit="10" x1="499.754" y1="128.184" x2="480.427" y2="128.184"/>
											<line fill="none" stroke="#727272" strokeWidth="2" strokeLinejoin="round" strokeMiterlimit="10" x1="499.754" y1="135.382" x2="480.427" y2="135.382"/>
											<rect x="438.225" y="113.689" fill="none" stroke="#727272" strokeWidth="2" strokeLinejoin="round" strokeMiterlimit="10" width="31.356" height="12.03"/>
									</g>
								</g>
								<circle fill="#FFFFFF" cx="309.844" cy="219.589" r="87.362"/>
								<rect x="293.081" y="332.687" fill="#FFFFFF" width="33.525" height="62.81"/>
								<g>
									<g>
											<line fill="none" stroke="#727272" strokeWidth="2" strokeLinejoin="round" strokeMiterlimit="10" x1="199.31" y1="351.816" x2="148.036" y2="351.816"/>
											<g>
												<polyline fill="none" stroke="#727272" strokeWidth="2" strokeLinejoin="round" strokeMiterlimit="10" points="
														217.847,307.74 217.847,292.062 195.07,292.062 192.21,294.922 155.234,294.922 152.375,292.062 129.597,292.062 129.597,307.74 
														"/>
												<path fill="none" stroke="#727272" strokeWidth="2" strokeLinejoin="round" strokeMiterlimit="10" d="M187.97,282.301
														c2.366,0,2.859,1.676,2.859,4.043v8.578h-34.117v-8.578c0-2.366,0.493-4.24,2.859-4.24"/>
												<g>
														<path fill="none" stroke="#727272" strokeWidth="2" strokeLinejoin="round" strokeMiterlimit="10" d="M165.193,282.104
															c0,1.578-1.282,2.859-2.859,2.859s-2.859-1.282-2.859-2.859v-7.099l5.719-8.578v-4.24"/>
														<path fill="none" stroke="#727272" strokeWidth="2" strokeLinejoin="round" strokeMiterlimit="10" d="M165.193,277.765v8.578
															c0,1.578,1.282,2.859,2.859,2.859h1.38l1.38-1.38l1.38,1.38h2.859l1.38-1.38l1.38,1.38h2.859l1.38-1.38l1.38,1.38h1.38
															c1.578,0,2.859-1.282,2.859-2.859v-9.959l-4.24-11.339v-2.859"/>
														<line fill="none" stroke="#727272" strokeWidth="2" strokeLinejoin="round" strokeMiterlimit="10" x1="170.813" y1="287.724" x2="170.813" y2="283.484"/>
														<line fill="none" stroke="#727272" strokeWidth="2" strokeLinejoin="round" strokeMiterlimit="10" x1="176.532" y1="287.724" x2="176.532" y2="283.484"/>
														<line fill="none" stroke="#727272" strokeWidth="2" strokeLinejoin="round" strokeMiterlimit="10" x1="182.251" y1="287.724" x2="182.251" y2="283.484"/>
												</g>
												<rect x="138.077" y="292.062" fill="none" stroke="#727272" strokeWidth="2" strokeLinejoin="round" strokeMiterlimit="10" width="5.719" height="59.753"/>
												<rect x="203.55" y="292.062" fill="none" stroke="#727272" strokeWidth="2" strokeLinejoin="round" strokeMiterlimit="10" width="5.719" height="59.753"/>
												<rect x="167.954" y="306.261" fill="none" stroke="#727272" strokeWidth="2" strokeLinejoin="round" strokeMiterlimit="10" width="11.339" height="11.339"/>
												<line fill="none" stroke="#727272" strokeWidth="2" strokeLinejoin="round" strokeMiterlimit="10" x1="163.714" y1="311.98" x2="143.796" y2="311.98"/>
												<line fill="none" stroke="#727272" strokeWidth="2" strokeLinejoin="round" strokeMiterlimit="10" x1="183.632" y1="311.98" x2="203.55" y2="311.98"/>
												<polyline fill="none" stroke="#727272" strokeWidth="2" strokeLinejoin="round" strokeMiterlimit="10" points="
														138.077,351.816 129.597,351.816 129.597,311.98 138.077,311.98 			"/>
												<polyline fill="none" stroke="#727272" strokeWidth="2" strokeLinejoin="round" strokeMiterlimit="10" points="
														209.269,311.98 217.847,311.98 217.847,351.816 209.269,351.816 			"/>
												<polyline fill="none" stroke="#727272" strokeWidth="2" strokeLinejoin="round" strokeMiterlimit="10" points="
														135.218,292.062 135.218,289.203 146.656,289.203 146.656,292.062 			"/>
												<polyline fill="none" stroke="#727272" strokeWidth="2" strokeLinejoin="round" strokeMiterlimit="10" points="
														200.789,292.062 200.789,289.203 212.128,289.203 212.128,292.062 			"/>
												<line fill="none" stroke="#727272" strokeWidth="2" strokeLinejoin="round" strokeMiterlimit="10" x1="166.574" y1="323.32" x2="169.433" y2="323.32"/>
												<line fill="none" stroke="#727272" strokeWidth="2" strokeLinejoin="round" strokeMiterlimit="10" x1="172.293" y1="323.32" x2="175.152" y2="323.32"/>
												<line fill="none" stroke="#727272" strokeWidth="2" strokeLinejoin="round" strokeMiterlimit="10" x1="178.012" y1="323.32" x2="180.772" y2="323.32"/>
											</g>
									</g>
								</g>
								<polyline fill="none" stroke="#727272" strokeWidth="3" strokeLinejoin="round" strokeMiterlimit="10" points="293.081,395.596 
									293.081,332.687 326.508,332.687 326.508,395.596 "/>
								<g>
									<path fill="none" stroke="#727272" strokeWidth="3" strokeLinejoin="round" strokeMiterlimit="10" d="M355.892,219.589
											c0,22.58-16.27,41.413-37.666,45.357c-2.761,0.493-5.522,0.789-8.381,0.789c-25.44,0-46.048-20.608-46.048-46.048
											c0-22.58,16.27-41.413,37.666-45.357c2.761-0.493,5.522-0.789,8.381-0.789C335.283,173.542,355.892,194.15,355.892,219.589z"/>
								</g>
								<line fill="none" stroke="#FD6A02" strokeWidth="3" strokeLinejoin="round" strokeMiterlimit="10" x1="347.51" y1="349.449" x2="355.892" y2="349.449"/>
								<line fill="none" stroke="#FD6A02" strokeWidth="3" strokeLinejoin="round" strokeMiterlimit="10" x1="364.273" y1="349.449" x2="372.654" y2="349.449"/>
								<line fill="none" stroke="#FD6A02" strokeWidth="3" strokeLinejoin="round" strokeMiterlimit="10" x1="381.035" y1="349.449" x2="389.417" y2="349.449"/>
								<line fill="none" stroke="#FD6A02" strokeWidth="3" strokeLinejoin="round" strokeMiterlimit="10" x1="230.173" y1="349.449" x2="238.554" y2="349.449"/>
								<line fill="none" stroke="#FD6A02" strokeWidth="3" strokeLinejoin="round" strokeMiterlimit="10" x1="246.935" y1="349.449" x2="255.316" y2="349.449"/>
								<line fill="none" stroke="#FD6A02" strokeWidth="3" strokeLinejoin="round" strokeMiterlimit="10" x1="263.698" y1="349.449" x2="272.079" y2="349.449"/>
								<line fill="none" stroke="#727272" strokeWidth="3" strokeLinejoin="round" strokeMiterlimit="10" x1="326.508" y1="349.449" x2="293.081" y2="349.449"/>
								<path fill="none" stroke="#727272" strokeWidth="3" strokeLinejoin="round" strokeMiterlimit="10" d="M309.844,307.543
									c-48.611,0-87.954-39.343-87.954-87.954s39.343-87.954,87.954-87.954s87.954,39.343,87.954,87.954
									c0,42.892-30.666,78.587-71.191,86.376"/>
								<path fill="none" stroke="#727272" strokeWidth="3" strokeLinejoin="round" strokeMiterlimit="10" d="M309.844,332.687v-41.906
									c39.343,0,71.191-31.849,71.191-71.191s-31.849-71.191-71.191-71.191s-71.191,31.849-71.191,71.191
									c0,33.525,23.172,61.726,54.429,69.219"/>
								<g>
									<g>
											<g>
												<g>
														<line fill="none" stroke="#727272" strokeWidth="2" strokeLinejoin="round" strokeMiterlimit="10" x1="130.386" y1="155.103" x2="154.544" y2="155.103"/>
														<polyline fill="none" stroke="#727272" strokeWidth="2" strokeLinejoin="round" strokeMiterlimit="10" points="
															170.222,171.964 166.574,175.612 166.574,177.979 161.742,182.81 				"/>
														<path fill="none" stroke="#727272" strokeWidth="2" strokeLinejoin="round" strokeMiterlimit="10" d="M141.233,182.81
															l13.311,13.311c0,0,1.183,1.183,2.366,1.183c1.972,0,3.648-1.578,3.648-3.648c0-1.183-1.183-2.366-1.183-2.366l-13.311-13.311"
															/>
														<path fill="none" stroke="#727272" strokeWidth="2" strokeLinejoin="round" strokeMiterlimit="10" d="M153.361,194.938
															c0,0,1.183,1.183,1.183,2.366c0,1.972-1.578,3.648-3.648,3.648c-1.183,0-2.366-1.183-2.366-1.183l-12.03-12.03"/>
														<path fill="none" stroke="#727272" strokeWidth="2" strokeLinejoin="round" strokeMiterlimit="10" d="M146.064,197.305
															c0,0,1.183,1.183,1.183,2.366c0,1.972-1.578,3.648-3.648,3.648c-1.183,0-2.366-1.183-2.366-1.183l-21.693-21.693v-3.648
															l-4.832-4.832"/>
														<path fill="none" stroke="#727272" strokeWidth="2" strokeLinejoin="round" strokeMiterlimit="10" d="M125.555,187.642
															c0,0-1.183,1.183-2.366,1.183c-1.972,0-3.648-1.578-3.648-3.648c0-1.183,1.183-2.366,1.183-2.366"/>
														<path fill="none" stroke="#727272" strokeWidth="2" strokeLinejoin="round" strokeMiterlimit="10" d="M130.386,192.473
															c0,0-1.183,1.183-2.366,1.183c-1.972,0-3.648-1.578-3.648-3.648c0-1.183,1.183-2.366,1.183-2.366"/>
														<path fill="none" stroke="#727272" strokeWidth="2" strokeLinejoin="round" strokeMiterlimit="10" d="M135.218,197.305
															c0,0-1.183,1.183-2.366,1.183c-1.972,0-3.648-1.578-3.648-3.648c0-1.183,1.183-2.366,1.183-2.366"/>
														<path fill="none" stroke="#727272" strokeWidth="2" strokeLinejoin="round" strokeMiterlimit="10" d="M140.049,202.136
															c0,0-1.183,1.183-2.366,1.183c-1.972,0-3.648-1.578-3.648-3.648c0-1.183,1.183-2.366,1.183-2.366"/>
														<path fill="none" stroke="#727272" strokeWidth="2" strokeLinejoin="round" strokeMiterlimit="10" d="M138.866,155.103
															l-7.198,7.198c0,0-1.183,1.183-1.183,2.366c0,1.972,1.578,3.648,3.648,3.648c1.183,0,2.366-1.183,2.366-1.183l6.015-6.015h3.648
															v7.198l15.678,15.678c0,0,1.183,1.183,1.183,2.366c0,1.972-1.578,3.648-3.648,3.648c-1.183,0-2.366-1.183-2.366-1.183"/>
														<path fill="none" stroke="#727272" strokeWidth="2" strokeLinejoin="round" strokeMiterlimit="10" d="M155.727,167.132
															c0,1.972-1.578,3.648-3.648,3.648h-3.648"/>
														<polyline fill="none" stroke="#727272" strokeWidth="2" strokeLinejoin="round" strokeMiterlimit="10" points="
															179.885,165.949 173.772,171.964 171.405,171.964 152.079,152.638 152.079,150.271 164.207,138.242 				"/>
														<polyline fill="none" stroke="#727272" strokeWidth="2" strokeLinejoin="round" strokeMiterlimit="10" points="
															105.045,165.949 111.06,171.964 113.525,171.964 132.851,152.638 132.851,150.271 120.723,138.242 				"/>
														<line fill="none" stroke="#727272" strokeWidth="2" strokeLinejoin="round" strokeMiterlimit="10" x1="172.588" y1="163.583" x2="175.053" y2="161.117"/>
														<line fill="none" stroke="#727272" strokeWidth="2" strokeLinejoin="round" strokeMiterlimit="10" x1="109.877" y1="161.117" x2="112.342" y2="163.583"/>
												</g>
												<path fill="none" stroke="#727272" strokeWidth="2" strokeLinejoin="round" strokeMiterlimit="10" d="M137.683,186.459"/>
												<path fill="none" stroke="#727272" strokeWidth="2" strokeLinejoin="round" strokeMiterlimit="10" d="M135.218,188.825"/>
											</g>
									</g>
								</g>
								<g>
									<g>
											<g>
												<line fill="none" stroke="#727272" strokeWidth="2" strokeLinejoin="round" strokeMiterlimit="10" x1="440.592" y1="327.165" x2="440.592" y2="333.18"/>
												<line fill="none" stroke="#727272" strokeWidth="2" strokeLinejoin="round" strokeMiterlimit="10" x1="408.053" y1="344.026" x2="410.518" y2="344.026"/>
												<line fill="none" stroke="#727272" strokeWidth="2" strokeLinejoin="round" strokeMiterlimit="10" x1="412.884" y1="344.026" x2="415.251" y2="344.026"/>
												<line fill="none" stroke="#727272" strokeWidth="2" strokeLinejoin="round" strokeMiterlimit="10" x1="417.716" y1="344.026" x2="420.082" y2="344.026"/>
												<line fill="none" stroke="#727272" strokeWidth="2" strokeLinejoin="round" strokeMiterlimit="10" x1="434.577" y1="344.026" x2="437.042" y2="344.026"/>
												<line fill="none" stroke="#727272" strokeWidth="2" strokeLinejoin="round" strokeMiterlimit="10" x1="439.408" y1="344.026" x2="441.873" y2="344.026"/>
												<line fill="none" stroke="#727272" strokeWidth="2" strokeLinejoin="round" strokeMiterlimit="10" x1="444.24" y1="344.026" x2="446.606" y2="344.026"/>
												<line fill="none" stroke="#727272" strokeWidth="2" strokeLinejoin="round" strokeMiterlimit="10" x1="461.101" y1="344.026" x2="463.566" y2="344.026"/>
												<line fill="none" stroke="#727272" strokeWidth="2" strokeLinejoin="round" strokeMiterlimit="10" x1="465.933" y1="344.026" x2="468.398" y2="344.026"/>
												<line fill="none" stroke="#727272" strokeWidth="2" strokeLinejoin="round" strokeMiterlimit="10" x1="470.764" y1="344.026" x2="473.131" y2="344.026"/>
												<path fill="none" stroke="#727272" strokeWidth="2" strokeLinejoin="round" strokeMiterlimit="10" d="M465.933,284.963v-4.832
														H432.21l-3.648-3.648h-18.044v39.836c0,1.972,1.578,3.648,3.648,3.648c1.972,0,3.648-1.578,3.648-3.648v-31.356h53.048v35.004
														h-56.697"/>
												<g>
														<polygon fill="none" stroke="#727272" strokeWidth="2" strokeLinejoin="round" strokeMiterlimit="10" points="
															424.914,351.224 403.221,351.224 403.221,334.363 409.236,334.363 411.701,336.828 424.914,336.828 				"/>
												</g>
												<g>
														<polygon fill="none" stroke="#727272" strokeWidth="2" strokeLinejoin="round" strokeMiterlimit="10" points="
															451.438,351.224 429.745,351.224 429.745,334.363 435.76,334.363 438.225,336.828 451.438,336.828 				"/>
												</g>
												<g>
														<polygon fill="none" stroke="#727272" strokeWidth="2" strokeLinejoin="round" strokeMiterlimit="10" points="
															477.962,351.224 456.27,351.224 456.27,334.363 462.284,334.363 464.749,336.828 477.962,336.828 				"/>
												</g>
												<polyline fill="none" stroke="#727272" strokeWidth="2" strokeLinejoin="round" strokeMiterlimit="10" points="
														414.067,333.18 414.067,327.165 467.116,327.165 467.116,333.18 			"/>
												<path fill="none" stroke="#727272" strokeWidth="2" strokeLinejoin="round" strokeMiterlimit="10" d="M435.76,312.671v-6.015
														c1.676,2.859,4.832,4.832,8.48,4.832c5.325,0,9.663-4.339,9.663-9.663"/>
												<path fill="none" stroke="#727272" strokeWidth="2" strokeLinejoin="round" strokeMiterlimit="10" d="M452.72,290.978v6.015
														c-1.676-2.859-4.832-4.832-8.48-4.832c-5.325,0-9.663,4.339-9.663,9.663"/>
												<line fill="none" stroke="#727272" strokeWidth="2" strokeLinejoin="round" strokeMiterlimit="10" x1="435.76" y1="306.656" x2="440.592" y2="306.656"/>
												<line fill="none" stroke="#727272" strokeWidth="2" strokeLinejoin="round" strokeMiterlimit="10" x1="452.72" y1="296.993" x2="447.888" y2="296.993"/>
												<line fill="none" stroke="#727272" strokeWidth="2" strokeLinejoin="round" strokeMiterlimit="10" x1="427.379" y1="319.869" x2="427.379" y2="327.165"/>
												<line fill="none" stroke="#727272" strokeWidth="2" strokeLinejoin="round" strokeMiterlimit="10" x1="453.903" y1="319.869" x2="453.903" y2="327.165"/>
											</g>
									</g>
								</g>
								<path fill="none" stroke="#FD6A02" strokeWidth="2" strokeLinejoin="round" strokeMiterlimit="10" strokeDasharray="4,4" d="
									M313.985,92.588c0,0-2.564-13.903,10.551-13.903s119.704,0,119.704,0s10.649-0.592,10.649,10.649s0,11.241,0,11.241"/>
								<path fill="none" stroke="#FD6A02" strokeWidth="2" strokeLinejoin="round" strokeMiterlimit="10" strokeDasharray="4,4" d="
									M445.423,232.013h95.349c0,0,11.931-0.394,11.931-11.931c0-11.537,0-9.071,0-9.071s0.592-9.564-9.565-9.564s-71.783,0-71.783,0
									s-6.705-2.366-6.705-6.705c0-4.339,0-10.846,0-10.846"/>
								<path fill="none" stroke="#FD6A02" strokeWidth="2" strokeLinejoin="round" strokeMiterlimit="10" strokeDasharray="4,4" d="
									M490.09,237.042c0,0,9.269,0.887,9.269,9.269c0,8.381,0,51.865,0,51.865s1.085,9.367-9.367,9.367s-13.114,0-13.114,0"/>
								<path fill="#FD6A02" d="M320,240.099L320,240.099c-4.733-0.296-8.283-4.24-8.085-8.874v-17.65h7.592
									c0.986,0,1.873-0.789,1.873-1.873c0-0.986-0.789-1.873-1.873-1.873l0,0h-7.592v-12.621c0-0.986-0.789-1.873-1.775-1.873
									s-1.873,0.789-1.873,1.775v0.099v12.621h-8.677c-0.986,0-1.873,0.789-1.873,1.873c0,0.986,0.789,1.873,1.873,1.873h8.677v17.65
									c-0.197,6.606,4.93,12.227,11.635,12.523H320c0.986,0,1.873-0.789,1.873-1.873C321.873,240.887,320.986,240.099,320,240.099
									L320,240.099L320,240.099L320,240.099z"/>
								<rect x="292.194" y="238.225" fill="#727272" width="5.522" height="5.522"/>
								<path fill="none" stroke="#FD6A02" strokeWidth="2" strokeLinejoin="round" strokeMiterlimit="10" strokeDasharray="4,4" d="
									M313.788,94.067v18.636c0,0,0.887,7.691-7.691,7.691s-13.903,0-13.903,0"/>
								<path fill="none" stroke="#FD6A02" strokeWidth="2" strokeLinejoin="round" strokeMiterlimit="10" strokeDasharray="4,4" d="
									M215.382,117.535h-29.088c0,0-9.17,0.197-9.17,9.17s0,21.693,0,21.693"/>
								<path fill="none" stroke="#FD6A02" strokeWidth="2" strokeLinejoin="round" strokeDasharray="4,4" d="M122.498,319.967h-31.75
									c0,0-8.48-0.493-8.48-8.48c0-7.987,0-58.57,0-58.57s0.296-7.494,7.494-7.494s109.449,0,109.449,0s9.466-1.085,9.466-9.466
									c0-8.381,0-9.367,0-9.367s0-8.184-8.184-8.184s-88.151,0-88.151,0s-7.888-2.071-7.888-7.888s0-33.032,0-33.032"/>
						</svg>