<svg id="svg-4" version="1.1" xmlns="http://www.w3.org/2000/svg" xmlns:xlink="http://www.w3.org/1999/xlink" x="0px" y="0px" width="392px" height="337px" viewBox="70.5 86.5 392 337" enable-background="new 70.5 86.5 392 337" xml:space="preserve" class="finished" style="opacity: 1;">
          <g id="_x31_7_x5F_wireframe_x5F_sketching">
            <path fill="#f6f6f6" stroke="#727272" stroke-width="2" stroke-miterlimit="10" width="82.235" height="123.353" d="M129.893 286.738 L212.128 286.738 L212.128 410.091 L129.893 410.091 Z" style="stroke-dasharray: 412, 414; stroke-dashoffset: 0;"></path>

            <path fill="none" stroke="#727272" stroke-width="2" stroke-miterlimit="10" d="M129.893,296.993L212.128,296.993" style="stroke-dasharray: 83, 85; stroke-dashoffset: 0;"></path>
            <path fill="none" stroke="#727272" stroke-width="2" stroke-miterlimit="10" d="M142.712,312.473L163.32,312.473" style="stroke-dasharray: 21, 23; stroke-dashoffset: 0;"></path>
            <path fill="none" stroke="#727272" stroke-width="2" stroke-miterlimit="10" d="M163.32,322.728L183.829,322.728" style="stroke-dasharray: 21, 23; stroke-dashoffset: 0;"></path>

            <path fill="none" stroke="#727272" stroke-width="2" stroke-miterlimit="10" d="M142.712,322.728L158.192,322.728" style="stroke-dasharray: 16, 18; stroke-dashoffset: 0;"></path>

            <path fill="none" stroke="#727272" stroke-width="2" stroke-miterlimit="10" d="M158.192,353.591L178.702,353.591" style="stroke-dasharray: 21, 23; stroke-dashoffset: 0;"></path>

            <path fill="none" stroke="#727272" stroke-width="2" stroke-miterlimit="10" d="M142.712,353.591L153.065,353.591" style="stroke-dasharray: 11, 13; stroke-dashoffset: 0;"></path>

            <path fill="none" stroke="#727272" stroke-width="2" stroke-miterlimit="10" d="M153.065,332.983L178.702,332.983" style="stroke-dasharray: 26, 28; stroke-dashoffset: 0;"></path>
            <path fill="none" stroke="#727272" stroke-width="2" stroke-miterlimit="10" d="M183.829,332.983L199.31,332.983" style="stroke-dasharray: 16, 18; stroke-dashoffset: 0;"></path>

            <path fill="none" stroke="#727272" stroke-width="2" stroke-miterlimit="10" d="M153.065,343.237L188.956,343.237" style="stroke-dasharray: 36, 38; stroke-dashoffset: 0;"></path>

            <path fill="none" stroke="#727272" stroke-width="2" stroke-miterlimit="10" d="M153.065,363.846L168.447,363.846" style="stroke-dasharray: 16, 18; stroke-dashoffset: 0;"></path>
            <path fill="none" stroke="#727272" stroke-width="2" stroke-miterlimit="10" d="M173.574,363.846L199.31,363.846" style="stroke-dasharray: 26, 28; stroke-dashoffset: 0;"></path>
            <path fill="none" stroke="#727272" stroke-width="2" stroke-miterlimit="10" d="M153.065,374.1L188.956,374.1" style="stroke-dasharray: 36, 38; stroke-dashoffset: 0;"></path>

            <path fill="none" stroke="#727272" stroke-width="2" stroke-miterlimit="10" d="M153.065,384.355L178.702,384.355" style="stroke-dasharray: 26, 28; stroke-dashoffset: 0;"></path>
            <path fill="none" stroke="#727272" stroke-width="2" stroke-miterlimit="10" d="M183.829,384.355L199.31,384.355" style="stroke-dasharray: 16, 18; stroke-dashoffset: 0;"></path>
            <path fill="none" stroke="#727272" stroke-width="2" stroke-miterlimit="10" d="M142.712,394.61L163.32,394.61" style="stroke-dasharray: 21, 23; stroke-dashoffset: 0;"></path>
            <path fill="none" stroke="#727272" stroke-width="2" stroke-miterlimit="10" d="M168.447,394.61L178.702,394.61" style="stroke-dasharray: 11, 13; stroke-dashoffset: 0;"></path>
            <g>
              <path fill="none" stroke="#727272" stroke-width="2" stroke-miterlimit="10" d="M175.547,188.529A5.62,5.62 0,1,1 186.787,188.529A5.62,5.62 0,1,1 175.547,188.529" style="stroke-dasharray: 36, 38; stroke-dashoffset: 0;"></path>

              <path fill="none" stroke="#727272" stroke-width="2" stroke-miterlimit="10" d="M195.859,195.333L193.591,195.333" style="stroke-dasharray: 3, 5; stroke-dashoffset: 0;"></path>

              <path fill="none" stroke="#727272" stroke-width="2" stroke-miterlimit="10" d="M157.502,183.993L155.234,183.993" style="stroke-dasharray: 3, 5; stroke-dashoffset: 0;"></path>

              <path fill="none" stroke="#727272" stroke-width="2" stroke-miterlimit="10" d="M182.35,215.645L180.082,215.645" style="stroke-dasharray: 3, 5; stroke-dashoffset: 0;"></path>

              <path fill="none" stroke="#727272" stroke-width="2" stroke-miterlimit="10" d="M164.207,210.025L162.038,210.025" style="stroke-dasharray: 3, 5; stroke-dashoffset: 0;"></path>

              <path fill="none" stroke="#727272" stroke-width="2" stroke-miterlimit="10" d="M151.882,217.913L149.614,217.913" style="stroke-dasharray: 3, 5; stroke-dashoffset: 0;"></path>
              <path fill="none" stroke="#727272" stroke-width="2" stroke-miterlimit="10" d="M192.506,215.645A1.085,1.085 0,1,1 194.67600000000002,215.645A1.085,1.085 0,1,1 192.506,215.645" style="stroke-dasharray: 7, 9; stroke-dashoffset: 0;"></path>
              <path fill="none" stroke="#727272" stroke-width="2" stroke-miterlimit="10" d="M191.323,215.645A2.268,2.268 0,1,1 195.859,215.645A2.268,2.268 0,1,1 191.323,215.645" style="stroke-dasharray: 15, 17; stroke-dashoffset: 0;"></path>
              <path fill="none" stroke="#727272" stroke-width="2" stroke-miterlimit="10" d="M190.238,215.645A3.353,3.353 0,1,1 196.94400000000002,215.645A3.353,3.353 0,1,1 190.238,215.645" style="stroke-dasharray: 22, 24; stroke-dashoffset: 0;"></path>
              <path fill="none" stroke="#727272" stroke-width="2" stroke-miterlimit="10" d="M162.037,224.717A1.085,1.085 0,1,1 164.20700000000002,224.717A1.085,1.085 0,1,1 162.037,224.717" style="stroke-dasharray: 7, 9; stroke-dashoffset: 0;"></path>
              <path fill="none" stroke="#727272" stroke-width="2" stroke-miterlimit="10" d="M150.797,203.221A1.085,1.085 0,1,1 152.967,203.221A1.085,1.085 0,1,1 150.797,203.221" style="stroke-dasharray: 7, 9; stroke-dashoffset: 0;"></path>
              <path fill="none" stroke="#727272" stroke-width="2" stroke-miterlimit="10" d="M166.475,180.838
							c2.859-4.832,8.085-8.085,14.1-8.085c2.465,0,4.141,0.296,5.127,0.493" style="stroke-dasharray: 23, 25; stroke-dashoffset: 0;"></path>
              <path fill="none" stroke="#727272" stroke-width="2" stroke-miterlimit="10" d="M206.015,214.56
							c2.662-18.044-14.692-9.071-26.524-9.071c-9.071,0-15.283-7.297-15.283-16.368" style="stroke-dasharray: 61, 63; stroke-dashoffset: 0;"></path>
              <path fill="none" stroke="#727272" stroke-width="2" stroke-miterlimit="10" d="M204.93,193.065
							c1.479,3.846,2.268,8.085,2.268,12.424c0,19.326-15.678,35.004-35.004,35.004s-35.004-15.678-35.004-35.004
							s15.678-35.004,35.004-35.004c12.227,0,22.975,6.311,29.285,15.777" style="stroke-dasharray: 213, 215; stroke-dashoffset: 0;"></path>

              <path fill="none" stroke="#727272" stroke-width="2" stroke-miterlimit="10" d="M138.274,238.225L136.007,238.225" style="stroke-dasharray: 3, 5; stroke-dashoffset: 0;"></path>

              <path fill="none" stroke="#727272" stroke-width="2" stroke-miterlimit="10" d="M208.283,238.225L206.015,238.225" style="stroke-dasharray: 3, 5; stroke-dashoffset: 0;"></path>

              <path fill="none" stroke="#727272" stroke-width="2" stroke-miterlimit="10" d="M138.274,176.105L136.007,176.105" style="stroke-dasharray: 3, 5; stroke-dashoffset: 0;"></path>

              <path fill="none" stroke="#727272" stroke-width="2" stroke-miterlimit="10" d="M138.274,180.641L136.007,180.641" style="stroke-dasharray: 3, 5; stroke-dashoffset: 0;"></path>

              <path fill="none" stroke="#727272" stroke-width="2" stroke-miterlimit="10" d="M187.97,228.069L185.703,228.069" style="stroke-dasharray: 3, 5; stroke-dashoffset: 0;"></path>

              <path fill="none" stroke="#727272" stroke-width="2" stroke-miterlimit="10" d="M148.431,190.797L146.163,190.797" style="stroke-dasharray: 3, 5; stroke-dashoffset: 0;"></path>
              <path fill="none" stroke="#727272" stroke-width="2" stroke-miterlimit="10" d="M136.007,229.252c4.536,0,4.536,4.536,9.071,4.536
							s4.536-4.536,9.071-4.536c4.536,0,4.536,4.536,9.071,4.536c4.536,0,4.536-4.536,9.071-4.536c4.536,0,4.536,4.536,9.071,4.536" style="stroke-dasharray: 53, 55; stroke-dashoffset: 0;"></path>
            </g>
            <g>
              <g>
                <g>
                  <g>
                    <g>
                      <path fill="transparent" stroke="#727272" stroke-width="2" stroke-miterlimit="10" d="M419.885,355.267
											c0-1.972,1.578-3.648,3.55-3.845c-0.592-4.24-2.268-8.085-4.733-11.339c-0.69,0.69-1.676,1.085-2.662,1.085
											c-2.169,0-3.846-1.676-3.846-3.846c0-1.085,0.394-1.972,1.085-2.662c-3.254-2.465-7.198-4.043-11.339-4.733
											c-0.197,1.972-1.775,3.55-3.846,3.55c-1.972,0-3.648-1.578-3.846-3.55c-4.24,0.592-8.085,2.268-11.339,4.733
											c0.69,0.69,1.085,1.676,1.085,2.662c0,2.169-1.676,3.846-3.846,3.846c-1.085,0-1.972-0.394-2.662-1.085
											c-2.465,3.254-4.043,7.198-4.733,11.339c1.972,0.197,3.55,1.775,3.55,3.845c0,1.972-1.578,3.648-3.55,3.846
											c0.592,4.24,2.268,8.085,4.733,11.339c0.69-0.69,1.676-1.085,2.662-1.085c2.169,0,3.846,1.676,3.846,3.846
											c0,1.085-0.394,1.972-1.085,2.662c3.254,2.465,7.198,4.043,11.339,4.733c0.197-1.972,1.775-3.55,3.846-3.55
											c1.972,0,3.648,1.578,3.846,3.55c4.24-0.592,8.085-2.268,11.339-4.733c-0.69-0.69-1.085-1.676-1.085-2.662
											c0-2.169,1.676-3.846,3.846-3.846c1.085,0,1.972,0.394,2.662,1.085c2.465-3.254,4.043-7.198,4.733-11.339
											C421.463,358.915,419.885,357.239,419.885,355.267z" style="stroke-dasharray: 194, 196; stroke-dashoffset: 0;"></path>
                      <path fill="#FDFFFF" stroke="#727272" stroke-width="2" stroke-miterlimit="10" d="M386.557,355.267A11.537,11.537 0,1,1 409.631,355.267A11.537,11.537 0,1,1 386.557,355.267" style="stroke-dasharray: 73, 75; stroke-dashoffset: 0;"></path>
                      <path fill="#FDFFFF" stroke="#727272" stroke-width="2" stroke-miterlimit="10" d="M394.248,355.267A3.846,3.846 0,1,1 401.94,355.267A3.846,3.846 0,1,1 394.248,355.267" style="stroke-dasharray: 25, 27; stroke-dashoffset: 0;"></path>
                    </g>
                    <g>
                      <path fill="transparent" stroke="#727272" stroke-width="2" stroke-miterlimit="10" d="M448.085,320.657
											c0-1.972,1.479-3.648,3.451-3.846c-0.493-2.564-1.479-4.832-2.859-6.902c-0.592,0.296-1.183,0.493-1.873,0.493
											c-2.169,0-3.846-1.676-3.846-3.846c0-0.69,0.197-1.282,0.493-1.873c-2.071-1.38-4.437-2.366-6.902-2.859
											c-0.197,1.972-1.775,3.451-3.846,3.451c-2.071,0-3.648-1.479-3.845-3.451c-2.564,0.493-4.832,1.479-6.902,2.859
											c0.296,0.592,0.493,1.183,0.493,1.873c0,2.169-1.676,3.846-3.846,3.846c-0.69,0-1.282-0.197-1.873-0.493
											c-1.38,2.071-2.366,4.437-2.859,6.902c1.972,0.197,3.451,1.775,3.451,3.846c0,1.972-1.479,3.648-3.451,3.846
											c0.493,2.564,1.479,4.832,2.859,6.902c0.592-0.296,1.183-0.493,1.873-0.493c2.169,0,3.846,1.676,3.846,3.846
											c0,0.69-0.197,1.282-0.493,1.873c2.071,1.38,4.437,2.366,6.902,2.859c0.197-1.972,1.775-3.451,3.845-3.451
											c2.071,0,3.648,1.479,3.846,3.451c2.564-0.493,4.832-1.479,6.902-2.859c-0.296-0.592-0.493-1.183-0.493-1.873
											c0-2.169,1.676-3.846,3.846-3.846c0.69,0,1.282,0.197,1.873,0.493c1.38-2.071,2.366-4.437,2.859-6.902
											C449.663,324.306,448.085,322.629,448.085,320.657z" style="stroke-dasharray: 146, 148; stroke-dashoffset: 0;"></path>
                      <path fill="#FDFFFF" stroke="#727272" stroke-width="2" stroke-miterlimit="10" d="M427.57599999999996,320.657A5.127,5.127 0,1,1 437.83,320.657A5.127,5.127 0,1,1 427.57599999999996,320.657" style="stroke-dasharray: 33, 35; stroke-dashoffset: 0;"></path>
                    </g>
                  </g>
                  <path fill="transparent" stroke="#727272" stroke-width="2" stroke-miterlimit="10" d="M372.457,337.321v-1.282
									c1.282-20.805,21.2-34.61,42.301-34.61c2.169,0,2.564,0,2.564,0" style="stroke-dasharray: 65, 67; stroke-dashoffset: 0;"></path>
                  <path fill="transparent" stroke="#727272" stroke-width="2" stroke-miterlimit="10" d="M416.039,380.904h1.282
									c20.805-1.282,34.61-21.2,34.61-42.301c0-2.268,0-2.564,0-2.564" style="stroke-dasharray: 65, 67; stroke-dashoffset: 0;"></path>
                </g>
              </g>
            </g>
            <g>
              <path fill="#f6f6f6" stroke="#FD6A02" stroke-width="3" stroke-linejoin="round" stroke-miterlimit="10" d="M397.305,145.44L382.219,179.458L408.644,179.458L367.132,236.154L363.287,236.154L378.472,194.544L355.793,194.544L
							374.626,145.44Z" style="stroke-dasharray: 280, 282; stroke-dashoffset: 0;"></path>
            </g>
            <g>
              <path fill="#f6f6f6" stroke="#727272" stroke-width="3" stroke-linejoin="round" stroke-miterlimit="10" d="M256.007,188.726L256.007,173.542L309.351,173.542L309.351,188.726" style="stroke-dasharray: 84, 86; stroke-dashoffset: 0;"></path>

              <path fill="none" stroke="#727272" stroke-width="3" stroke-linejoin="round" stroke-miterlimit="10" d="M282.728,173.542L282.728,162.104" style="stroke-dasharray: 12, 14; stroke-dashoffset: 0;"></path>
              <path fill="#f6f6f6" stroke="#727272" stroke-width="3" stroke-linejoin="round" stroke-miterlimit="10" d="M400.855,255.678
							v15.283H164.503v-15.283c0,0,26.721-68.628,118.127-68.628C373.542,187.05,400.657,255.283,400.855,255.678z" style="stroke-dasharray: 557, 559; stroke-dashoffset: 0;"></path>

              <path fill="none" stroke="#727272" stroke-width="3" stroke-linejoin="round" stroke-miterlimit="10" d="M160.756,286.146L404.602,286.146" style="stroke-dasharray: 244, 246; stroke-dashoffset: 0;"></path>

              <path fill="#f6f6f6" stroke="#727272" stroke-width="3" stroke-linejoin="round" stroke-miterlimit="10" width="221.068" height="22.876" d="M172.194 286.146 L393.262 286.146 L393.262 309.022 L172.194 309.022 Z" style="stroke-dasharray: 488, 490; stroke-dashoffset: 0;"></path>

              <path fill="none" stroke="#727272" stroke-width="3" stroke-linejoin="round" stroke-miterlimit="10" d="M179.786,270.863L179.786,286.146" style="stroke-dasharray: 16, 18; stroke-dashoffset: 0;"></path>

              <path fill="none" stroke="#727272" stroke-width="3" stroke-linejoin="round" stroke-miterlimit="10" d="M202.662,270.863L202.662,286.146" style="stroke-dasharray: 16, 18; stroke-dashoffset: 0;"></path>

              <path fill="none" stroke="#727272" stroke-width="3" stroke-linejoin="round" stroke-miterlimit="10" d="M225.538,270.863L225.538,286.146" style="stroke-dasharray: 16, 18; stroke-dashoffset: 0;"></path>

              <path fill="none" stroke="#727272" stroke-width="3" stroke-linejoin="round" stroke-miterlimit="10" d="M248.414,270.863L248.414,286.146" style="stroke-dasharray: 16, 18; stroke-dashoffset: 0;"></path>

              <path fill="none" stroke="#727272" stroke-width="3" stroke-linejoin="round" stroke-miterlimit="10" d="M271.29,270.863L271.29,286.146" style="stroke-dasharray: 16, 18; stroke-dashoffset: 0;"></path>

              <path fill="none" stroke="#727272" stroke-width="3" stroke-linejoin="round" stroke-miterlimit="10" d="M294.166,270.863L294.166,286.146" style="stroke-dasharray: 16, 18; stroke-dashoffset: 0;"></path>

              <path fill="none" stroke="#727272" stroke-width="3" stroke-linejoin="round" stroke-miterlimit="10" d="M316.943,270.863L316.943,286.146" style="stroke-dasharray: 16, 18; stroke-dashoffset: 0;"></path>

              <path fill="none" stroke="#727272" stroke-width="3" stroke-linejoin="round" stroke-miterlimit="10" d="M339.819,270.863L339.819,286.146" style="stroke-dasharray: 16, 18; stroke-dashoffset: 0;"></path>

              <path fill="none" stroke="#727272" stroke-width="3" stroke-linejoin="round" stroke-miterlimit="10" d="M362.695,270.863L362.695,286.146" style="stroke-dasharray: 16, 18; stroke-dashoffset: 0;"></path>

              <path fill="none" stroke="#727272" stroke-width="3" stroke-linejoin="round" stroke-miterlimit="10" d="M385.571,270.863L385.571,286.146" style="stroke-dasharray: 16, 18; stroke-dashoffset: 0;"></path>

              <path fill="none" stroke="#727272" stroke-width="3" stroke-linejoin="round" stroke-miterlimit="10" d="M225.538,343.336L225.538,366.212" style="stroke-dasharray: 23, 25; stroke-dashoffset: 0;"></path>

              <path fill="none" stroke="#727272" stroke-width="3" stroke-linejoin="round" stroke-miterlimit="10" d="M248.414,343.336L248.414,404.273" style="stroke-dasharray: 61, 63; stroke-dashoffset: 0;"></path>

              <path fill="none" stroke="#727272" stroke-width="3" stroke-linejoin="round" stroke-miterlimit="10" d="M271.29,343.336L271.29,381.397" style="stroke-dasharray: 39, 41; stroke-dashoffset: 0;"></path>

              <path fill="none" stroke="#727272" stroke-width="3" stroke-linejoin="round" stroke-miterlimit="10" d="M294.166,343.336L294.166,381.397" style="stroke-dasharray: 39, 41; stroke-dashoffset: 0;"></path>

              <path fill="none" stroke="#727272" stroke-width="3" stroke-linejoin="round" stroke-miterlimit="10" d="M316.943,343.336L316.943,404.273" style="stroke-dasharray: 61, 63; stroke-dashoffset: 0;"></path>

              <path fill="none" stroke="#727272" stroke-width="3" stroke-linejoin="round" stroke-miterlimit="10" d="M339.819,343.336L339.819,366.212" style="stroke-dasharray: 23, 25; stroke-dashoffset: 0;"></path>
              <path fill="#f6f6f6" stroke="#727272" stroke-width="3" stroke-linejoin="round" stroke-miterlimit="10" d="M362.695,320.46v7.592
							c0,2.071-1.676,3.846-3.846,3.846H206.508c-2.071,0-3.846-1.676-3.846-3.846v-7.592" style="stroke-dasharray: 180, 182; stroke-dashoffset: 0;"></path>

              <path fill="none" stroke="#727272" stroke-width="3" stroke-linejoin="round" stroke-miterlimit="10" d="M271.29,389.088L271.29,396.68" style="stroke-dasharray: 8, 10; stroke-dashoffset: 0;"></path>

              <path fill="none" stroke="#727272" stroke-width="3" stroke-linejoin="round" stroke-miterlimit="10" d="M339.819,373.804L339.819,381.397" style="stroke-dasharray: 8, 10; stroke-dashoffset: 0;"></path>

              <path fill="none" stroke="#727272" stroke-width="3" stroke-linejoin="round" stroke-miterlimit="10" d="M225.538,373.804L225.538,389.088" style="stroke-dasharray: 16, 18; stroke-dashoffset: 0;"></path>

              <path fill="none" stroke="#FD6A02" stroke-width="3" stroke-linejoin="round" stroke-miterlimit="10" d="M278.883,202.334L286.475,202.334" style="stroke-dasharray: 8, 10; stroke-dashoffset: 0;"></path>

              <path fill="none" stroke="#FD6A02" stroke-width="3" stroke-linejoin="round" stroke-miterlimit="10" d="M263.599,202.334L271.29,202.334" style="stroke-dasharray: 8, 10; stroke-dashoffset: 0;"></path>

              <path fill="none" stroke="#FD6A02" stroke-width="3" stroke-linejoin="round" stroke-miterlimit="10" d="M294.166,202.334L301.758,202.334" style="stroke-dasharray: 8, 10; stroke-dashoffset: 0;"></path>

              <path fill="none" stroke="#727272" stroke-width="3" stroke-linejoin="round" stroke-miterlimit="10" d="M175.941,255.678L389.417,255.678" style="stroke-dasharray: 214, 216; stroke-dashoffset: 0;"></path>
            </g>
            <g>
              <path fill="#f6f6f6" stroke="#727272" stroke-linejoin="round" stroke-miterlimit="10" d="M148.628,336.039l-33.131-39.145
							c-0.69-0.789-1.972-0.887-2.761-0.197l-3.057,2.564c-0.789,0.69-0.887,1.972-0.197,2.761l33.131,39.145l8.085,3.451
							L148.628,336.039z" style="stroke-dasharray: 131, 133; stroke-dashoffset: 0;"></path>

              <path fill="none" stroke="#727272" stroke-linejoin="round" stroke-miterlimit="10" d="M141.233,333.377L145.67,338.603" style="stroke-dasharray: 7, 9; stroke-dashoffset: 0;"></path>

              <path fill="none" stroke="#727272" stroke-linejoin="round" stroke-miterlimit="10" d="M115.004,302.514L132.26,322.827" style="stroke-dasharray: 27, 29; stroke-dashoffset: 0;"></path>
            </g>

            <path fill="none" stroke="#727272" stroke-linejoin="round" stroke-miterlimit="10" d="M112.046,305.078L118.061,299.951" style="stroke-dasharray: 8, 10; stroke-dashoffset: 0;"></path>

            <path fill="none" stroke="#727272" stroke-linejoin="round" stroke-miterlimit="10" d="M142.613,341.167L148.628,336.039" style="stroke-dasharray: 8, 10; stroke-dashoffset: 0;"></path>

            <path fill="none" stroke="#727272" stroke-linejoin="round" stroke-miterlimit="10" d="M138.669,330.32L139.951,331.799" style="stroke-dasharray: 2, 4; stroke-dashoffset: 0;"></path>

            <path fill="none" stroke="#727272" stroke-linejoin="round" stroke-miterlimit="10" d="M136.105,327.362L137.387,328.841" style="stroke-dasharray: 2, 4; stroke-dashoffset: 0;"></path>

            <path fill="none" stroke="#727272" stroke-linejoin="round" stroke-miterlimit="10" d="M133.542,324.306L134.823,325.785" style="stroke-dasharray: 2, 4; stroke-dashoffset: 0;"></path>
            <path fill="none" stroke="#FD6A02" stroke-width="2" stroke-linejoin="round" stroke-miterlimit="10" stroke-dasharray="4,5" d="
						M118.061,358.422H95.875c0,0-12.424-0.592-12.424-12.424s0-132.621,0-132.621s0.493-10.353,10.353-10.353s35.99,0,35.99,0" style="stroke-dasharray: 227, 229; stroke-dashoffset: 0;"></path>
            <path fill="none" stroke="#FD6A02" stroke-width="2" stroke-linejoin="round" stroke-miterlimit="10" stroke-dasharray="4,5" d="
						M171.011,162.104v-23.566c0,0,0.592-13.804,13.804-13.804s86.475,0,86.475,0s10.353-0.394,10.353,10.353s0,21.594,0,21.594" style="stroke-dasharray: 170, 172; stroke-dashoffset: 0;"></path>
            <path fill="none" stroke="#FD6A02" stroke-width="2" stroke-linejoin="round" stroke-miterlimit="10" stroke-dasharray="4,5" d="
						M281.643,119.803v-12.818c0,0,1.479-9.663,9.663-9.663s45.16,0,45.16,0s11.044-0.394,11.044,11.044s0,59.556,0,59.556
						s2.366,8.578,8.578,8.578" style="stroke-dasharray: 164, 166; stroke-dashoffset: 0;"></path>
            <path fill="none" stroke="#FD6A02" stroke-width="2" stroke-linejoin="round" stroke-miterlimit="10" stroke-dasharray="4,5" d="
						M404.602,194.248c0,0,13.903,1.183,13.903,13.903s0,77.995,0,77.995" style="stroke-dasharray: 100, 102; stroke-dashoffset: 0;"></path>
          </g>
        </svg>