<svg id="svg-3" version="1.1" xmlns="http://www.w3.org/2000/svg" xmlns:xlink="http://www.w3.org/1999/xlink" x="0px" y="0px" width="511px" height="267px" viewBox="53.5 122.5 511 267" enable-background="new 53.5 122.5 511 267" xml:space="preserve" class="finished" style="opacity: 1;">
          <g>
            <g>
              <path fill="#FFFFFF" stroke="#727272" stroke-width="2" stroke-linejoin="round" stroke-miterlimit="10" d="M496.5,147.017
							c0-5.522-4.437-9.959-9.959-9.959H254.035c-5.522,0-9.959,4.437-9.959,9.959v132.818c0,5.522,4.437,9.959,9.959,9.959h232.506
							c5.522,0,9.959-4.437,9.959-9.959L496.5,147.017L496.5,147.017z" style="stroke-dasharray: 794, 796; stroke-dashoffset: 0;"></path>

              <path fill="none" stroke="#727272" stroke-width="2" stroke-linejoin="round" stroke-miterlimit="10" d="M390.205,289.795L400.164,323.024" style="stroke-dasharray: 35, 37; stroke-dashoffset: 0;"></path>

              <path fill="none" stroke="#727272" stroke-width="2" stroke-linejoin="round" stroke-miterlimit="10" d="M340.312,323.024L350.271,289.795" style="stroke-dasharray: 35, 37; stroke-dashoffset: 0;"></path>

              <path fill="none" stroke="#727272" stroke-width="2" stroke-linejoin="round" stroke-miterlimit="10" d="M327.099,323.024L413.377,323.024" style="stroke-dasharray: 87, 89; stroke-dashoffset: 0;"></path>

              <path fill="none" stroke="#727272" stroke-width="2" stroke-linejoin="round" stroke-miterlimit="10" d="M366.935,276.483L373.542,276.483" style="stroke-dasharray: 7, 9; stroke-dashoffset: 0;"></path>

              <path fill="#FFFFFF" stroke="#727272" stroke-width="2" stroke-linejoin="round" stroke-miterlimit="10" width="225.9" height="112.901" d="M257.288 150.271 L483.188 150.271 L483.188 263.17199999999997 L257.288 263.17199999999997 Z" style="stroke-dasharray: 678, 680; stroke-dashoffset: 0;"></path>
            </g>
          </g>
          <g id="_x31_7_x5F_wireframe_x5F_sketching">
            <g>
              <g>
                <g>
                  <path fill="#FFFFFF" stroke="#727272" stroke-miterlimit="10" width="38.751" height="60.247" d="M185.012 202.136 L223.763 202.136 L223.763 262.383 L185.012 262.383 Z" style="stroke-dasharray: 198, 200; stroke-dashoffset: 0;"></path>
                  <path fill="#FFFFFF" stroke="#727272" stroke-miterlimit="10" width="38.751" height="38.751" d="M232.342 202.136 L271.093 202.136 L271.093 240.887 L232.342 240.887 Z" style="stroke-dasharray: 156, 158; stroke-dashoffset: 0;"></path>
                  <path fill="#FFFFFF" stroke="#727272" stroke-miterlimit="10" width="38.751" height="68.825" d="M279.671 202.136 L318.42199999999997 202.136 L318.42199999999997 270.961 L279.671 270.961 Z" style="stroke-dasharray: 216, 218; stroke-dashoffset: 0;"></path>
                  <path fill="none" stroke="#727272" stroke-miterlimit="10" d="M230.173,249.466L273.262,249.466" style="stroke-dasharray: 44, 46; stroke-dashoffset: 0;"></path>
                  <path fill="none" stroke="#727272" stroke-miterlimit="10" d="M182.843,270.961L225.933,270.961" style="stroke-dasharray: 44, 46; stroke-dashoffset: 0;"></path>
                  <path fill="none" stroke="#727272" stroke-miterlimit="10" d="M182.843,279.54L225.933,279.54" style="stroke-dasharray: 44, 46; stroke-dashoffset: 0;"></path>
                  <path fill="none" stroke="#727272" stroke-miterlimit="10" d="M182.843,335.546L225.933,335.546" style="stroke-dasharray: 44, 46; stroke-dashoffset: 0;"></path>
                  <path fill="none" stroke="#727272" stroke-miterlimit="10" d="M223.763,249.466L185.012,249.466" style="stroke-dasharray: 39, 41; stroke-dashoffset: 0;"></path>
                  <path fill="#FFFFFF" stroke="#727272" stroke-miterlimit="10" width="38.751" height="68.825" d="M232.342 266.623 L271.093 266.623 L271.093 335.448 L232.342 335.448 Z" style="stroke-dasharray: 216, 218; stroke-dashoffset: 0;"></path>
                  <path fill="#FFFFFF" stroke="#727272" stroke-miterlimit="10" width="38.751" height="38.751" d="M185.012 288.217 L223.763 288.217 L223.763 326.96799999999996 L185.012 326.96799999999996 Z" style="stroke-dasharray: 156, 158; stroke-dashoffset: 0;"></path>
                  <path fill="none" stroke="#727272" stroke-miterlimit="10" d="M230.173,258.044L273.262,258.044" style="stroke-dasharray: 44, 46; stroke-dashoffset: 0;"></path>
                  <path fill="none" stroke="#727272" stroke-miterlimit="10" d="M277.601,326.968L320.592,326.968" style="stroke-dasharray: 43, 45; stroke-dashoffset: 0;"></path>
                  <path fill="none" stroke="#727272" stroke-miterlimit="10" d="M277.601,335.546L320.592,335.546" style="stroke-dasharray: 43, 45; stroke-dashoffset: 0;"></path>
                  <path fill="none" stroke="#727272" stroke-miterlimit="10" d="M241.019,275.3L245.259,275.3" style="stroke-dasharray: 5, 7; stroke-dashoffset: 0;"></path>
                  <path fill="none" stroke="#727272" stroke-miterlimit="10" d="M249.597,275.3L253.837,275.3" style="stroke-dasharray: 5, 7; stroke-dashoffset: 0;"></path>
                  <path fill="none" stroke="#727272" stroke-miterlimit="10" d="M258.176,275.3L262.514,275.3" style="stroke-dasharray: 5, 7; stroke-dashoffset: 0;"></path>
                  <path fill="none" stroke="#727272" stroke-miterlimit="10" d="M288.348,210.715L292.588,210.715" style="stroke-dasharray: 5, 7; stroke-dashoffset: 0;"></path>
                  <path fill="none" stroke="#727272" stroke-miterlimit="10" d="M296.927,210.715L301.265,210.715" style="stroke-dasharray: 5, 7; stroke-dashoffset: 0;"></path>
                  <path fill="none" stroke="#727272" stroke-miterlimit="10" d="M305.505,210.715L309.844,210.715" style="stroke-dasharray: 5, 7; stroke-dashoffset: 0;"></path>
                  <path fill="none" stroke="#727272" stroke-miterlimit="10" d="M193.591,210.715L197.929,210.715" style="stroke-dasharray: 5, 7; stroke-dashoffset: 0;"></path>
                  <path fill="none" stroke="#727272" stroke-miterlimit="10" d="M202.268,210.715L206.508,210.715" style="stroke-dasharray: 5, 7; stroke-dashoffset: 0;"></path>
                  <path fill="none" stroke="#727272" stroke-miterlimit="10" d="M210.846,210.715L215.185,210.715" style="stroke-dasharray: 5, 7; stroke-dashoffset: 0;"></path>
                  <path fill="none" stroke="#727272" stroke-miterlimit="10" d="M279.671,258.044L318.422,258.044" style="stroke-dasharray: 39, 41; stroke-dashoffset: 0;"></path>
                  <path fill="none" stroke="#727272" stroke-miterlimit="10" d="M271.093,322.629L232.342,322.629" style="stroke-dasharray: 39, 41; stroke-dashoffset: 0;"></path>
                  <path fill="none" stroke="#727272" stroke-miterlimit="10" d="M232.342,202.136L271.093,240.789" style="stroke-dasharray: 55, 57; stroke-dashoffset: 0;"></path>
                  <path fill="none" stroke="#727272" stroke-miterlimit="10" d="M271.093,202.136L232.342,240.789" style="stroke-dasharray: 55, 57; stroke-dashoffset: 0;"></path>
                  <path fill="none" stroke="#727272" stroke-miterlimit="10" d="M185.012,288.217L223.763,326.968" style="stroke-dasharray: 55, 57; stroke-dashoffset: 0;"></path>
                  <path fill="none" stroke="#727272" stroke-miterlimit="10" d="M223.763,288.217L185.012,326.968" style="stroke-dasharray: 55, 57; stroke-dashoffset: 0;"></path>
                  <path fill="#FFFFFF" stroke="#727272" stroke-miterlimit="10" width="38.751" height="38.751" d="M279.671 279.54 L318.42199999999997 279.54 L318.42199999999997 318.291 L279.671 318.291 Z" style="stroke-dasharray: 156, 158; stroke-dashoffset: 0;"></path>
                  <path fill="none" stroke="#727272" stroke-miterlimit="10" d="M279.671,279.54L318.422,318.291" style="stroke-dasharray: 55, 57; stroke-dashoffset: 0;"></path>
                  <path fill="none" stroke="#727272" stroke-miterlimit="10" d="M318.422,279.54L279.671,318.291" style="stroke-dasharray: 55, 57; stroke-dashoffset: 0;"></path>
                </g>
              </g>
            </g>
            <g>
              <g>
                <path fill="#FFFFFF" stroke="#727272" stroke-linejoin="round" stroke-miterlimit="10" width="123.944" height="109.351" d="M421.956 224.815 L545.9 224.815 L545.9 334.166 L421.956 334.166 Z" style="stroke-dasharray: 467, 469; stroke-dashoffset: 0;"></path>

                <path fill="none" stroke="#727272" stroke-linejoin="round" stroke-miterlimit="10" d="M421.956,234.478L545.9,234.478" style="stroke-dasharray: 124, 126; stroke-dashoffset: 0;"></path>

                <path fill="none" stroke="#727272" stroke-linejoin="round" stroke-miterlimit="10" d="M425.604,229.647L427.97,229.647" style="stroke-dasharray: 3, 5; stroke-dashoffset: 0;"></path>

                <path fill="none" stroke="#727272" stroke-linejoin="round" stroke-miterlimit="10" d="M430.435,229.647L432.901,229.647" style="stroke-dasharray: 3, 5; stroke-dashoffset: 0;"></path>

                <path fill="none" stroke="#727272" stroke-linejoin="round" stroke-miterlimit="10" d="M435.267,229.647L437.732,229.647" style="stroke-dasharray: 3, 5; stroke-dashoffset: 0;"></path>

                <path fill="none" stroke="#727272" stroke-linejoin="round" stroke-miterlimit="10" d="M441.38,224.815L441.38,234.478" style="stroke-dasharray: 10, 12; stroke-dashoffset: 0;"></path>

                <path fill="none" stroke="#727272" stroke-linejoin="round" stroke-miterlimit="10" d="M445.029,229.647L542.251,229.647" style="stroke-dasharray: 98, 100; stroke-dashoffset: 0;"></path>
                <g>
                  <path fill="#FFFFFF" stroke="#727272" stroke-linejoin="round" stroke-miterlimit="10" width="107.576" height="25.834" d="M430.14 250.353 L537.716 250.353 L537.716 276.187 L430.14 276.187 Z" style="stroke-dasharray: 267, 269; stroke-dashoffset: 0;"></path>

                  <path fill="none" stroke="#727272" stroke-linejoin="round" stroke-miterlimit="10" d="M427.97,241.775L453.804,241.775" style="stroke-dasharray: 26, 28; stroke-dashoffset: 0;"></path>

                  <path fill="none" stroke="#727272" stroke-linejoin="round" stroke-miterlimit="10" d="M492.555,241.775L501.134,241.775" style="stroke-dasharray: 9, 11; stroke-dashoffset: 0;"></path>

                  <path fill="none" stroke="#727272" stroke-linejoin="round" stroke-miterlimit="10" d="M505.374,241.775L514.051,241.775" style="stroke-dasharray: 9, 11; stroke-dashoffset: 0;"></path>

                  <path fill="none" stroke="#727272" stroke-linejoin="round" stroke-miterlimit="10" d="M518.291,241.775L526.869,241.775" style="stroke-dasharray: 9, 11; stroke-dashoffset: 0;"></path>

                  <path fill="none" stroke="#727272" stroke-linejoin="round" stroke-miterlimit="10" d="M531.208,241.775L539.786,241.775" style="stroke-dasharray: 9, 11; stroke-dashoffset: 0;"></path>

                  <path fill="none" stroke="#727272" stroke-linejoin="round" stroke-miterlimit="10" d="M505.374,284.766L539.786,284.766" style="stroke-dasharray: 35, 37; stroke-dashoffset: 0;"></path>

                  <path fill="none" stroke="#727272" stroke-linejoin="round" stroke-miterlimit="10" d="M466.721,284.766L501.134,284.766" style="stroke-dasharray: 35, 37; stroke-dashoffset: 0;"></path>

                  <path fill="none" stroke="#727272" stroke-linejoin="round" stroke-miterlimit="10" d="M427.97,284.766L462.383,284.766" style="stroke-dasharray: 35, 37; stroke-dashoffset: 0;"></path>

                  <path fill="#FFFFFF" stroke="#727272" stroke-linejoin="round" stroke-miterlimit="10" width="30.074" height="30.074" d="M430.14 293.443 L460.214 293.443 L460.214 323.517 L430.14 323.517 Z" style="stroke-dasharray: 121, 123; stroke-dashoffset: 0;"></path>

                  <path fill="#FFFFFF" stroke="#727272" stroke-linejoin="round" stroke-miterlimit="10" width="30.074" height="30.074" d="M468.891 293.443 L498.96500000000003 293.443 L498.96500000000003 323.517 L468.891 323.517 Z" style="stroke-dasharray: 121, 123; stroke-dashoffset: 0;"></path>

                  <path fill="#FFFFFF" stroke="#727272" stroke-linejoin="round" stroke-miterlimit="10" width="30.074" height="30.074" d="M507.543 293.443 L537.617 293.443 L537.617 323.517 L507.543 323.517 Z" style="stroke-dasharray: 121, 123; stroke-dashoffset: 0;"></path>
                </g>
              </g>
            </g>
            
            <g>
              <g>
                <path fill="none" stroke="#FD6A02" stroke-width="2" stroke-miterlimit="10" d="M62.35,305.571L64.322,305.571" style="stroke-dasharray: 2, 4; stroke-dashoffset: 0;"></path>

                <path fill="none" stroke="#FD6A02" stroke-width="2" stroke-miterlimit="10" stroke-dasharray="4.1192,5.149" d="M69.449,305.571L167.362,305.571" style="stroke-dasharray: 98, 100; stroke-dashoffset: 0;"></path>

                <path fill="none" stroke="#FD6A02" stroke-width="2" stroke-miterlimit="10" d="M169.926,305.571L171.898,305.571" style="stroke-dasharray: 2, 4; stroke-dashoffset: 0;"></path>
              </g>
            </g>
            <path fill="none" stroke="#FD6A02" stroke-width="2" stroke-miterlimit="10" stroke-dasharray="4,5" d="M204.339,195.727v-15.481
						c0,0-0.69-8.578,10.748-8.578c11.438,0,23.073,0,23.073,0" style="stroke-dasharray: 55, 57; stroke-dashoffset: 0;"></path>
            <path fill="none" stroke="#FD6A02" stroke-width="2" stroke-miterlimit="10" stroke-dasharray="4,5" d="M307.675,157.568v21.495
						c0,0-0.394,12.917,10.748,12.917c11.142,0,126.508,0,126.508,0s17.354-2.564,17.354,8.184s0,19.326,0,19.326" style="stroke-dasharray: 209, 211; stroke-dashoffset: 0;"></path>
            <path fill="none" stroke="#FD6A02" stroke-width="2" stroke-miterlimit="10" stroke-dasharray="4,5" d="M493.64,340.97v18.439
						c0,0,0.394,15.678,15.678,15.678c15.284,0,44.766,0,44.766,0" style="stroke-dasharray: 88, 90; stroke-dashoffset: 0;"></path>
          </g>
        </svg>