<svg id="svg-2" version="1.1" x="0px" y="0px" width="380.667px" height="318.667px" viewBox="0 0 380.667 318.667" enable-background="new 0 0 380.667 318.667" style="visibility:inherit"><path fill="#FFFFFF" stroke="#222829" stroke-width="2" stroke-linejoin="round" stroke-miterlimit="10" d="M252.444,96.496" style="stroke-dasharray:0, 2;stroke-dashoffset:0"></path><path fill="#FFFFFF" stroke="#222829" stroke-width="2" stroke-linejoin="round" stroke-miterlimit="10" d="M112.444,96.496" style="stroke-dasharray:0, 2;stroke-dashoffset:0"></path><path fill="#FFFFFF" stroke="#727272" stroke-width="2" stroke-linejoin="round" stroke-miterlimit="10" d="M112.444,290.941L252.444,290.941" style="stroke-dasharray:140, 142;stroke-dashoffset:0"></path><path fill="none" stroke="#727272" stroke-width="2" stroke-linejoin="round" stroke-miterlimit="10" d="M112.444,185.941V294.83 c0,10.74,8.704,19.444,19.444,19.444H233c10.74,0,19.444-8.704,19.444-19.444v-38.889" style="stroke-dasharray:310, 312;stroke-dashoffset:0"></path><path fill="none" stroke="#727272" stroke-width="2" stroke-linejoin="round" stroke-miterlimit="10" d="M252.444,147.052V92.608 c0-10.74-8.705-19.444-19.444-19.444H131.889c-10.74,0-19.444,8.704-19.444,19.444v15.556" style="stroke-dasharray:233, 235;stroke-dashoffset:0"></path><path fill="#FFFFFF" stroke="#727272" stroke-width="2" stroke-linejoin="round" stroke-miterlimit="10" d="M252.444,201.496L252.444,170.385" style="stroke-dasharray:32, 34;stroke-dashoffset:0"></path><path fill="#f6f6f6" stroke="#FD6A02" stroke-width="2" stroke-linejoin="round" stroke-miterlimit="10" d="M135.778,150.941L77.444,150.941L58,170.385L58,119.83L135.778,119.83Z" style="stroke-dasharray:246, 248;stroke-dashoffset:0"></path><g><path fill="#f6f6f6" stroke="#FD6A02" stroke-width="2" stroke-linejoin="round" stroke-miterlimit="10" d="M299.111,244.274L190.222,244.274L190.222,213.163L279.667,213.163L299.111,193.719Z" style="stroke-dasharray:308, 310;stroke-dashoffset:0"></path></g><path fill="#FFFFFF" stroke="#FD6A02" stroke-width="2" stroke-linejoin="round" stroke-miterlimit="10" d="M77.444,135.385L85.222,135.385" style="stroke-dasharray:8, 10;stroke-dashoffset:0"></path><path fill="#FFFFFF" stroke="#FD6A02" stroke-width="2" stroke-linejoin="round" stroke-miterlimit="10" d="M93,135.385L100.778,135.385" style="stroke-dasharray:8, 10;stroke-dashoffset:0"></path><path fill="#FFFFFF" stroke="#FD6A02" stroke-width="2" stroke-linejoin="round" stroke-miterlimit="10" d="M108.556,135.385L116.333,135.385" style="stroke-dasharray:8, 10;stroke-dashoffset:0"></path><path fill="#FFFFFF" stroke="#FD6A02" stroke-width="2" stroke-linejoin="round" stroke-miterlimit="10" d="M209.667,228.719L256.333,228.719" style="stroke-dasharray:47, 49;stroke-dashoffset:0"></path><path fill="#FFFFFF" stroke="#FD6A02" stroke-width="2" stroke-linejoin="round" stroke-miterlimit="10" d="M264.111,228.719L279.667,228.719" style="stroke-dasharray:16, 18;stroke-dashoffset:0"></path><path fill="none" stroke="#727272" stroke-width="2" stroke-linejoin="round" stroke-miterlimit="10" width="15.556" height="15.556" d="M128 259.83 L143.556 259.83 L143.556 275.38599999999997 L128 275.38599999999997 Z" style="stroke-dasharray:63, 65;stroke-dashoffset:0"></path><path fill="none" stroke="#727272" stroke-width="2" stroke-linejoin="round" stroke-miterlimit="10" width="15.556" height="15.556" d="M159.111 259.83 L174.667 259.83 L174.667 275.38599999999997 L159.111 275.38599999999997 Z" style="stroke-dasharray:63, 65;stroke-dashoffset:0"></path><path fill="none" stroke="#727272" stroke-width="2" stroke-linejoin="round" stroke-miterlimit="10" width="15.556" height="15.556" d="M190.222 259.83 L205.77800000000002 259.83 L205.77800000000002 275.38599999999997 L190.222 275.38599999999997 Z" style="stroke-dasharray:63, 65;stroke-dashoffset:0"></path><path fill="none" stroke="#727272" stroke-width="2" stroke-linejoin="round" stroke-miterlimit="10" width="15.556" height="15.556" d="M221.333 259.83 L236.889 259.83 L236.889 275.38599999999997 L221.333 275.38599999999997 Z" style="stroke-dasharray:63, 65;stroke-dashoffset:0"></path><path fill="#F6F6F6" stroke="#FD6A02" stroke-width="2" stroke-miterlimit="10" d="M159.111,174.274A23.333,23.333 0,1,1 205.777,174.274A23.333,23.333 0,1,1 159.111,174.274" style="stroke-dasharray:147, 149;stroke-dashoffset:0"></path><path fill="none" stroke="#727272" stroke-width="2" stroke-linejoin="round" stroke-miterlimit="10" d="M178.556,228.719L 128,228.719L128,185.941" style="stroke-dasharray:94, 96;stroke-dashoffset:0"></path><path fill="none" stroke="#727272" stroke-width="2" stroke-linejoin="round" stroke-miterlimit="10" d="M236.889,170.385L236.889,201.496" style="stroke-dasharray:32, 34;stroke-dashoffset:0"></path><path fill="none" stroke="#727272" stroke-width="2" stroke-linejoin="round" stroke-miterlimit="10" d="M147.444,119.83L 236.889,119.83L236.889,147.052" style="stroke-dasharray:117, 119;stroke-dashoffset:0"></path><path fill="#FFFFFF" stroke="#727272" stroke-width="2" stroke-linejoin="round" stroke-miterlimit="10" d="M124.111,244.274L131.889,244.274" style="stroke-dasharray:8, 10;stroke-dashoffset:0"></path><path fill="#FFFFFF" stroke="#727272" stroke-width="2" stroke-linejoin="round" stroke-miterlimit="10" d="M139.667,244.274L147.444,244.274" style="stroke-dasharray:8, 10;stroke-dashoffset:0"></path><path fill="#FFFFFF" stroke="#727272" stroke-width="2" stroke-linejoin="round" stroke-miterlimit="10" d="M155.222,244.274L163,244.274" style="stroke-dasharray:8, 10;stroke-dashoffset:0"></path><path fill="#FFFFFF" stroke="#727272" stroke-width="2" stroke-linejoin="round" stroke-miterlimit="10" d="M170.778,244.274L178.556,244.274" style="stroke-dasharray:8, 10;stroke-dashoffset:0"></path><path fill="#FFFFFF" stroke="#727272" stroke-width="2" stroke-linejoin="round" stroke-miterlimit="10" d="M217.444,158.719L303,158.719" style="stroke-dasharray:86, 88;stroke-dashoffset:0"></path><path fill="#FFFFFF" stroke="#727272" stroke-width="2" stroke-linejoin="round" stroke-miterlimit="10" d="M303,135.385L264.111,135.385" style="stroke-dasharray:39, 41;stroke-dashoffset:0"></path><path fill="#FFFFFF" stroke="#727272" stroke-width="2" stroke-linejoin="round" stroke-miterlimit="10" d="M303,119.83L264.111,119.83" style="stroke-dasharray:39, 41;stroke-dashoffset:0"></path><path fill="none" stroke="#727272" stroke-width="2" stroke-linejoin="round" stroke-miterlimit="10" d="M81.333,257.052v-75 c0-4.295,3.482-7.778,7.778-7.778h58.333" style="stroke-dasharray:146, 148;stroke-dashoffset:0"></path><path fill="#FFFFFF" stroke="#727272" stroke-width="2" stroke-linejoin="round" stroke-miterlimit="10" d="M225.222,174.274L217.444,174.274" style="stroke-dasharray:8, 10;stroke-dashoffset:0"></path><path fill="#FFFFFF" stroke="#727272" stroke-width="2" stroke-linejoin="round" stroke-miterlimit="10" d="M147.444,217.052L139.667,217.052" style="stroke-dasharray:8, 10;stroke-dashoffset:0"></path><path fill="#FFFFFF" stroke="#727272" stroke-width="2" stroke-linejoin="round" stroke-miterlimit="10" d="M155.222,135.385L147.444,135.385" style="stroke-dasharray:8, 10;stroke-dashoffset:0"></path><path fill="#FFFFFF" stroke="#727272" stroke-width="2" stroke-linejoin="round" stroke-miterlimit="10" d="M69.667,275.385L77.444,275.385" style="stroke-dasharray:8, 10;stroke-dashoffset:0"></path><path fill="#FFFFFF" stroke="#727272" stroke-width="2" stroke-linejoin="round" stroke-miterlimit="10" d="M85.222,275.385L93,275.385" style="stroke-dasharray:8, 10;stroke-dashoffset:0"></path><g><path fill="none" stroke="#727272" stroke-width="2" stroke-linejoin="round" stroke-miterlimit="10" d="M145,73.163 c0,0,3,11,19,11s23,0,23,0" style="stroke-dasharray:47, 49;stroke-dashoffset:0"></path><path fill="none" stroke="#727272" stroke-width="2" stroke-linejoin="round" stroke-miterlimit="10" d="M223,73.163 c0,0-3,11-19,11s-23,0-23,0" style="stroke-dasharray:47, 49;stroke-dashoffset:0"></path></g><g><g><g><path fill="none" stroke="#727272" stroke-width="2" stroke-miterlimit="10" d="M53.665,178.144L5.621,178.144L 5.621,5.615L119.728,5.615L151.097,36.984L151.097,64.432" style="stroke-dasharray:407, 409;stroke-dashoffset:0"></path><path fill="none" stroke="#727272" stroke-width="2" stroke-miterlimit="10" d="M135.412,48.747L135.412,64.432" style="stroke-dasharray:16, 18;stroke-dashoffset:0"></path><path fill="none" stroke="#727272" stroke-width="2" stroke-miterlimit="10" d="M53.665,162.46L21.305,162.46L 21.305,21.299L107.964,21.299" style="stroke-dasharray:261, 263;stroke-dashoffset:0"></path></g><path fill="none" stroke="#727272" stroke-width="2" stroke-miterlimit="10" d="M159.111,45.209h17.652 c2.166,0,3.923,1.756,3.923,3.923v17.652" style="stroke-dasharray:42, 44;stroke-dashoffset:0"></path><path fill="none" stroke="#727272" stroke-width="2" stroke-miterlimit="10" d="M94.855,281.711H48.839 c-5.647,0-10.226-4.579-10.226-10.226V191.47" style="stroke-dasharray:143, 145;stroke-dashoffset:0"></path><path fill="none" stroke="#727272" stroke-width="2" stroke-miterlimit="10" d="M151.097,36.984L119.728,36.984L 119.728,5.615" style="stroke-dasharray:63, 65;stroke-dashoffset:0"></path></g></g><g><g><path fill="none" stroke="#727272" stroke-width="2" stroke-linejoin="round" stroke-miterlimit="10" d="M286.489,28.606L 278.146,36.949L271.889,30.692" style="stroke-dasharray:21, 23;stroke-dashoffset:0"></path></g><path fill="none" stroke="#727272" stroke-width="2" stroke-linejoin="round" stroke-miterlimit="10" d="M294.832,28.606L311.517,28.606" style="stroke-dasharray:17, 19;stroke-dashoffset:0"></path><path fill="none" stroke="#727272" stroke-width="2" stroke-linejoin="round" stroke-miterlimit="10" d="M294.832,36.949L328.203,36.949" style="stroke-dasharray:34, 36;stroke-dashoffset:0"></path><g><path fill="none" stroke="#727272" stroke-width="2" stroke-linejoin="round" stroke-miterlimit="10" d="M286.489,49.463L 278.146,57.806L271.889,51.549" style="stroke-dasharray:21, 23;stroke-dashoffset:0"></path></g><path fill="none" stroke="#727272" stroke-width="2" stroke-linejoin="round" stroke-miterlimit="10" d="M294.832,49.463L344.889,49.463" style="stroke-dasharray:51, 53;stroke-dashoffset:0"></path><path fill="none" stroke="#727272" stroke-width="2" stroke-linejoin="round" stroke-miterlimit="10" d="M294.832,57.806L307.346,57.806" style="stroke-dasharray:13, 15;stroke-dashoffset:0"></path><path fill="none" stroke="#727272" stroke-width="2" stroke-linejoin="round" stroke-miterlimit="10" d="M294.832,70.32L324.032,70.32" style="stroke-dasharray:30, 32;stroke-dashoffset:0"></path><path fill="none" stroke="#727272" stroke-width="2" stroke-linejoin="round" stroke-miterlimit="10" d="M328.203,70.32L344.889,70.32" style="stroke-dasharray:17, 19;stroke-dashoffset:0"></path><path fill="none" stroke="#727272" stroke-width="2" stroke-linejoin="round" stroke-miterlimit="10" d="M294.832,78.663L344.889,78.663" style="stroke-dasharray:51, 53;stroke-dashoffset:0"></path><g><path fill="none" stroke="#727272" stroke-width="2" stroke-linejoin="round" stroke-miterlimit="10" d="M286.489,70.32L 278.146,78.663L271.889,72.406" style="stroke-dasharray:21, 23;stroke-dashoffset:0"></path></g><path fill="none" stroke="#727272" stroke-width="2" stroke-linejoin="round" stroke-miterlimit="10" d="M311.517,57.806L315.689,57.806" style="stroke-dasharray:5, 7;stroke-dashoffset:0"></path><path fill="none" stroke="#727272" stroke-width="2" stroke-linejoin="round" stroke-miterlimit="10" d="M319.86,57.806L336.546,57.806" style="stroke-dasharray:17, 19;stroke-dashoffset:0"></path><path fill="none" stroke="#727272" stroke-width="2" stroke-linejoin="round" stroke-miterlimit="10" d="M315.689,28.606L344.889,28.606" style="stroke-dasharray:30, 32;stroke-dashoffset:0"></path></g></svg>