
                <svg
		version="1.1"
		xmlns="http://www.w3.org/2000/svg"
		x="0px"
		y="0px"
		width="411px"
		height="349px"
		viewBox="113.5 75.5 411 349"
		enableBackground="new 113.5 75.5 411 349"
	>
		<g id="_x31_7_x5F_wireframe_x5F_sketching">
			<g>
				<g>
					<g>
						<g>
							<path
								fill="none"
								stroke="#727272"
								strokeWidth="2"
								strokeLinejoin="round"
								strokeMiterlimit="10"
								d="M246.935,267.412
						 c0,2.169-1.775,3.944-3.944,3.944h-82.334c-2.169,0-3.944-1.775-3.944-3.944V240c0-2.169,1.775-3.944,3.944-3.944h82.334
						 c2.169,0,3.944,1.775,3.944,3.944v7.79h11.734l-11.734,11.734V267.412z"
						 strokeDasharray="261, 263"
						 strokeDashoffset="0"
							/>
						</g>
						<path
							fill="none"
							stroke="#727272"
							strokeWidth="2"
							strokeLinejoin="round"
							strokeMiterlimit="10"
							d="M199.901,253.706L203.846,253.706"
							style={{ strokeDasharray: "4, 6", strokeDashoffset: 0 }}
						/>
						<path
							fill="none"
							stroke="#727272"
							strokeWidth="2"
							strokeLinejoin="round"
							strokeMiterlimit="10"
							d="M207.79,253.706L211.734,253.706"
							style={{ strokeDasharray: "4, 6", strokeDashoffset: 0 }}
						/>
						<path
							fill="none"
							stroke="#727272"
							strokeWidth="2"
							strokeLinejoin="round"
							strokeMiterlimit="10"
							d="M192.112,253.706L196.056,253.706"
							style={{ strokeDasharray: "4, 6", strokeDashoffset: 0 }}
						/>
					</g>
					<g>
						<g>
							<path
								fill="none"
								stroke="#727272"
								strokeWidth="2"
								strokeLinejoin="round"
								strokeMiterlimit="10"
								d="M246.935,181.233
						 c0,2.169-1.775,3.944-3.944,3.944h-82.334c-2.169,0-3.944-1.775-3.944-3.944v-27.412c0-2.169,1.775-3.944,3.944-3.944h82.334
						 c2.169,0,3.944,1.775,3.944,3.944v7.79h11.734l-11.734,11.734V181.233z"
								style={{ strokeDasharray: " 261, 263", strokeDashoffset: 0 }}
							/>
						</g>
						<path
							fill="none"
							stroke="#727272"
							strokeWidth="2"
							strokeLinejoin="round"
							strokeMiterlimit="10"
							d="M166.672,163.583L186.196,163.583"
							style={{ strokeDasharray: " 20, 22", strokeDashoffset: 0 }}
						/>
						<path
							fill="none"
							stroke="#727272"
							strokeWidth="2"
							strokeLinejoin="round"
							strokeMiterlimit="10"
							d="M190.14,163.583L225.44,163.583"
							style={{ strokeDasharray: " 36, 38", strokeDashoffset: 0 }}
						/>
						<path
							fill="none"
							stroke="#727272"
							strokeWidth="2"
							strokeLinejoin="round"
							strokeMiterlimit="10"
							d="M166.672,171.372L205.818,171.372"
							style={{ strokeDasharray: " 40, 42", strokeDashoffset: 0 }}
						/>
					</g>
					<g>
						<g>
							<path
								fill="none"
								stroke="#FD6A02"
								strokeWidth="2"
								strokeLinejoin="round"
								strokeMiterlimit="10"
								d="M149.022,224.322
						 c0,2.169,1.775,3.944,3.944,3.944H235.3c2.169,0,3.944-1.775,3.944-3.944V196.91c0-2.169-1.775-3.944-3.944-3.944h-82.334
						 c-2.169,0-3.944,1.775-3.944,3.944v7.79h-11.734l11.734,11.734V224.322z"
								style={{ strokeDasharray: " 261, 263", strokeDashoffset: 0 }}
							/>
						</g>
						<path
							fill="none"
							stroke="#FD6A02"
							strokeWidth="2"
							strokeLinejoin="round"
							strokeMiterlimit="10"
							d="M158.784,206.672L199.901,206.672"
							style={{ strokeDasharray: " 42, 44", strokeDashoffset: 0 }}
						/>
						<path
							fill="none"
							stroke="#FD6A02"
							strokeWidth="2"
							strokeLinejoin="round"
							strokeMiterlimit="10"
							d="M158.784,214.56L180.378,214.56"
							style={{ strokeDasharray: " 22, 24", strokeDashoffset: 0 }}
						/>
						<path
							fill="none"
							stroke="#FD6A02"
							strokeWidth="2"
							strokeLinejoin="round"
							strokeMiterlimit="10"
							d="M184.224,214.56L219.523,214.56"
							style={{ strokeDasharray: " 36, 38", strokeDashoffset: 0 }}
						/>
					</g>
				</g>
			</g>
			<g>
				<path
					fill="none"
					stroke="#727272"
					strokeWidth="2"
					strokeMiterlimit="10"
					d="M405.883,378.439L402.827,378.439"
					style={{ strokeDasharray: "4, 6", strokeDashoffset: 0 }}
				/>
				<path
					fill="none"
					stroke="#727272"
					strokeWidth="2"
					strokeMiterlimit="10"
					d="M399.869,378.439L396.812,378.439"
					style={{ strokeDasharray: "4, 6", strokeDashoffset: 0 }}
				/>
				<path
					fill="none"
					stroke="#727272"
					strokeWidth="2"
					strokeMiterlimit="10"
					d="M411.898,378.439L408.94,378.439"
					style={{ strokeDasharray: "3, 5", strokeDashoffset: 0 }}
				/>
				<path
					fill="none"
					stroke="#727272"
					strokeWidth="2"
					strokeMiterlimit="10"
					d="M418.012,378.439L414.955,378.439"
					style={{ strokeDasharray: "4, 6", strokeDashoffset: 0 }}
				/>
				<path
					fill="none"
					stroke="#727272"
					strokeWidth="2"
					strokeMiterlimit="10"
					d="M393.854,378.439L390.797,378.439"
					style={{ strokeDasharray: " 4, 6", strokeDashoffset: 0 }}
				/>
				<path
					fill="none"
					stroke="#727272"
					strokeWidth="2"
					strokeMiterlimit="10"
					d="M443.648,378.439L451.241,378.439L
		451.241,417.683L357.568,417.683L357.568,378.439L365.062,378.439"
					style={{ strokeDasharray: " 188, 190", strokeDashoffset: 0 }}
				/>
				<path
					fill="none"
					stroke="#727272"
					strokeWidth="2"
					strokeMiterlimit="10"
					d="M366.639,392.046L366.639,387.51L
		371.175,387.51"
					style={{ strokeDasharray: " 10, 12", strokeDashoffset: 0 }}
				/>
				<path
					fill="none"
					stroke="#727272"
					strokeWidth="2"
					strokeMiterlimit="10"
					d="M375.711,392.046L375.711,387.51L
		380.247,387.51"
					style={{ strokeDasharray: " 10, 12", strokeDashoffset: 0 }}
				/>
				<path
					fill="none"
					stroke="#727272"
					strokeWidth="2"
					strokeMiterlimit="10"
					d="M384.782,392.046L384.782,387.51L
		389.318,387.51"
					style={{ strokeDasharray: " 10, 12", strokeDashoffset: 0 }}
				/>
				<path
					fill="none"
					stroke="#727272"
					strokeWidth="2"
					strokeMiterlimit="10"
					d="M393.854,392.046L393.854,387.51L
		398.389,387.51"
					style={{ strokeDasharray: " 10, 12", strokeDashoffset: 0 }}
				/>
				<path
					fill="none"
					stroke="#727272"
					strokeWidth="2"
					strokeMiterlimit="10"
					d="M402.827,392.046L402.827,387.51L
		407.362,387.51"
					style={{ strokeDasharray: " 10, 12", strokeDashoffset: 0 }}
				/>
				<path
					fill="none"
					stroke="#727272"
					strokeWidth="2"
					strokeMiterlimit="10"
					d="M411.898,392.046L411.898,387.51L
		416.434,387.51"
					style={{ strokeDasharray: " 10, 12", strokeDashoffset: 0 }}
				/>
				<path
					fill="none"
					stroke="#727272"
					strokeWidth="2"
					strokeMiterlimit="10"
					d="M420.97,392.046L420.97,387.51L
		425.505,387.51"
					style={{ strokeDasharray: " 10, 12", strokeDashoffset: 0 }}
				/>
				<path
					fill="none"
					stroke="#727272"
					strokeWidth="2"
					strokeMiterlimit="10"
					d="M378.669,401.117L378.669,396.582L
		383.205,396.582"
					style={{ strokeDasharray: " 10, 12", strokeDashoffset: 0 }}
				/>
				<path
					fill="none"
					stroke="#727272"
					strokeWidth="2"
					strokeMiterlimit="10"
					d="M387.74,401.117L387.74,396.582L
		392.276,396.582"
					style={{ strokeDasharray: " 10, 12", strokeDashoffset: 0 }}
				/>
				<path
					fill="none"
					stroke="#727272"
					strokeWidth="2"
					strokeMiterlimit="10"
					d="M366.639,410.189L366.639,405.653L
		371.175,405.653"
					style={{ strokeDasharray: " 10, 12", strokeDashoffset: 0 }}
				/>
				<path
					fill="none"
					stroke="#727272"
					strokeWidth="2"
					strokeMiterlimit="10"
					d="M375.711,410.189L375.711,405.653L
		380.247,405.653"
					style={{ strokeDasharray: " 10, 12", strokeDashoffset: 0 }}
				/>
				<path
					fill="none"
					stroke="#727272"
					strokeWidth="2"
					strokeMiterlimit="10"
					d="M430.041,410.189L430.041,405.653L
		434.577,405.653"
					style={{ strokeDasharray: " 10, 12", strokeDashoffset: 0 }}
				/>
				<path
					fill="none"
					stroke="#727272"
					strokeWidth="2"
					strokeMiterlimit="10"
					d="M439.113,410.189L439.113,405.653L
		443.648,405.653"
					style={{ strokeDasharray: " 10, 12", strokeDashoffset: 0 }}
				/>
				<path
					fill="none"
					stroke="#727272"
					strokeWidth="2"
					strokeMiterlimit="10"
					d="M396.812,401.117L396.812,396.582L
		401.348,396.582"
					style={{ strokeDasharray: " 10, 12", strokeDashoffset: 0 }}
				/>
				<path
					fill="none"
					stroke="#727272"
					strokeWidth="2"
					strokeMiterlimit="10"
					d="M405.883,401.117L405.883,396.582L
		410.419,396.582"
					style={{ strokeDasharray: " 10, 12", strokeDashoffset: 0 }}
				/>
				<path
					fill="none"
					stroke="#727272"
					strokeWidth="2"
					strokeMiterlimit="10"
					d="M414.955,401.117L414.955,396.582L
		419.491,396.582"
					style={{ strokeDasharray: " 10, 12", strokeDashoffset: 0 }}
				/>
				<path
					fill="none"
					stroke="#727272"
					strokeWidth="2"
					strokeMiterlimit="10"
					d="M424.026,401.117L424.026,396.582L
		428.562,396.582"
					style={{ strokeDasharray: " 10, 12", strokeDashoffset: 0 }}
				/>
				<path
					fill="none"
					stroke="#727272"
					strokeWidth="2"
					strokeMiterlimit="10"
					d="M424.026,410.189L424.026,405.653L
		384.782,405.653L384.782,410.189"
					style={{ strokeDasharray: " 49, 51", strokeDashoffset: 0 }}
				/>
				<path
					fill="none"
					stroke="#727272"
					strokeWidth="2"
					strokeMiterlimit="10"
					d="M442.169,401.117L442.169,396.582L
		433.098,396.582L433.098,401.117"
					style={{ strokeDasharray: " 19, 21", strokeDashoffset: 0 }}
				/>
				<path
					fill="none"
					stroke="#727272"
					strokeWidth="2"
					strokeMiterlimit="10"
					d="M442.169,392.046L442.169,387.51L
		430.041,387.51L430.041,392.046"
					style={{ strokeDasharray: " 22, 24", strokeDashoffset: 0 }}
				/>
				<path
					fill="none"
					stroke="#727272"
					strokeWidth="2"
					strokeMiterlimit="10"
					d="M372.654,401.117L372.654,396.582L
		366.639,396.582L366.639,401.117"
					style={{ strokeDasharray: " 16, 18", strokeDashoffset: 0 }}
				/>
			</g>
			<g>
				<g>
					<g>
						<g>
							<path
								fill="none"
								stroke="#727272"
								strokeWidth="2"
								strokeMiterlimit="10"
								d="M417.025,302.021L379.753,302.021L
						 379.753,249.17L454.297,249.17L454.297,279.244"
								style={{ strokeDasharray: " 195, 197", strokeDashoffset: 0 }}
							/>
							<path
								fill="none"
								stroke="#727272"
								strokeWidth="2"
								strokeMiterlimit="10"
								width="4.832"
								height="4.832"
								d="M404.996 258.735 L409.828 258.735 L409.828 263.567 L404.996 263.567 Z"
								style={{ strokeDasharray: " 20, 22", strokeDashoffset: 0 }}
							/>
							<path
								fill="none"
								stroke="#727272"
								strokeWidth="2"
								strokeMiterlimit="10"
								width="4.832"
								height="4.832"
								d="M414.659 258.735 L419.491 258.735 L419.491 263.567 L414.659 263.567 Z"
								style={{ strokeDasharray: " 20, 22", strokeDashoffset: 0 }}
							/>
							<path
								fill="none"
								stroke="#727272"
								strokeWidth="2"
								strokeMiterlimit="10"
								width="4.832"
								height="4.832"
								d="M424.224 258.735 L429.056 258.735 L429.056 263.567 L424.224 263.567 Z"
								style={{ strokeDasharray: " 20, 22", strokeDashoffset: 0 }}
							/>
							<path
								fill="none"
								stroke="#727272"
								strokeWidth="2"
								strokeMiterlimit="10"
								width="4.832"
								height="4.832"
								d="M433.887 258.735 L438.719 258.735 L438.719 263.567 L433.887 263.567 Z"
								style={{ strokeDasharray: " 20, 22", strokeDashoffset: 0 }}
							/>
							<path
								fill="none"
								stroke="#727272"
								strokeWidth="2"
								strokeMiterlimit="10"
								width="4.832"
								height="4.832"
								d="M443.451 258.735 L448.283 258.735 L448.283 263.567 L443.451 263.567 Z"
								style={{ strokeDasharray: " 20, 22", strokeDashoffset: 0 }}
							/>
							<path
								fill="none"
								stroke="#727272"
								strokeWidth="2"
								strokeMiterlimit="10"
								width="4.832"
								height="4.832"
								d="M404.996 268.398 L409.828 268.398 L409.828 273.23 L404.996 273.23 Z"
								style={{ strokeDasharray: " 20, 22", strokeDashoffset: 0 }}
							/>
							<path
								fill="none"
								stroke="#727272"
								strokeWidth="2"
								strokeMiterlimit="10"
								width="4.832"
								height="4.832"
								d="M395.431 268.398 L400.263 268.398 L400.263 273.23 L395.431 273.23 Z"
								style={{ strokeDasharray: " 20, 22", strokeDashoffset: 0 }}
							/>
							<path
								fill="none"
								stroke="#727272"
								strokeWidth="2"
								strokeMiterlimit="10"
								width="4.832"
								height="4.832"
								d="M385.768 268.398 L390.59999999999997 268.398 L390.59999999999997 273.23 L385.768 273.23 Z"
								style={{ strokeDasharray: " 20, 22", strokeDashoffset: 0 }}
							/>
							<path
								fill="none"
								stroke="#727272"
								strokeWidth="2"
								strokeMiterlimit="10"
								width="4.832"
								height="4.832"
								d="M414.659 268.398 L419.491 268.398 L419.491 273.23 L414.659 273.23 Z"
								style={{ strokeDasharray: " 20, 22", strokeDashoffset: 0 }}
							/>
							<path
								fill="none"
								stroke="#727272"
								strokeWidth="2"
								strokeMiterlimit="10"
								width="4.832"
								height="4.832"
								d="M424.224 268.398 L429.056 268.398 L429.056 273.23 L424.224 273.23 Z"
								style={{ strokeDasharray: " 20, 22", strokeDashoffset: 0 }}
							/>
							<path
								fill="none"
								stroke="#727272"
								strokeWidth="2"
								strokeMiterlimit="10"
								width="4.832"
								height="4.832"
								d="M433.887 268.398 L438.719 268.398 L438.719 273.23 L433.887 273.23 Z"
								style={{ strokeDasharray: " 20, 22", strokeDashoffset: 0 }}
							/>
							<path
								fill="none"
								stroke="#727272"
								strokeWidth="2"
								strokeMiterlimit="10"
								width="4.832"
								height="4.832"
								d="M443.451 268.398 L448.283 268.398 L448.283 273.23 L443.451 273.23 Z"
								style={{ strokeDasharray: " 20, 22", strokeDashoffset: 0 }}
							/>
							<path
								fill="none"
								stroke="#727272"
								strokeWidth="2"
								strokeMiterlimit="10"
								width="4.832"
								height="4.832"
								d="M404.996 277.962 L409.828 277.962 L409.828 282.794 L404.996 282.794 Z"
								style={{ strokeDasharray: " 20, 22", strokeDashoffset: 0 }}
							/>
							<path
								fill="none"
								stroke="#727272"
								strokeWidth="2"
								strokeMiterlimit="10"
								width="4.832"
								height="4.832"
								d="M395.431 277.962 L400.263 277.962 L400.263 282.794 L395.431 282.794 Z"
								style={{ strokeDasharray: " 20, 22", strokeDashoffset: 0 }}
							/>
							<path
								fill="none"
								stroke="#727272"
								strokeWidth="2"
								strokeMiterlimit="10"
								width="4.832"
								height="4.832"
								d="M385.768 277.962 L390.59999999999997 277.962 L390.59999999999997 282.794 L385.768 282.794 Z"
								style={{ strokeDasharray: " 20, 22", strokeDashoffset: 0 }}
							/>
							<path
								fill="none"
								stroke="#727272"
								strokeWidth="2"
								strokeMiterlimit="10"
								width="4.832"
								height="4.832"
								d="M414.659 277.962 L419.491 277.962 L419.491 282.794 L414.659 282.794 Z"
								style={{ strokeDasharray: " 20, 22", strokeDashoffset: 0 }}
							/>
							<path
								fill="none"
								stroke="#727272"
								strokeWidth="2"
								strokeMiterlimit="10"
								width="4.832"
								height="4.832"
								d="M404.996 287.625 L409.828 287.625 L409.828 292.457 L404.996 292.457 Z"
								style={{ strokeDasharray: " 20, 22", strokeDashoffset: 0 }}
							/>
							<path
								fill="none"
								stroke="#727272"
								strokeWidth="2"
								strokeMiterlimit="10"
								width="4.832"
								height="4.832"
								d="M395.431 287.625 L400.263 287.625 L400.263 292.457 L395.431 292.457 Z"
								style={{ strokeDasharray: " 20, 22", strokeDashoffset: 0 }}
							/>
							<path
								fill="none"
								stroke="#727272"
								strokeWidth="2"
								strokeMiterlimit="10"
								width="4.832"
								height="4.832"
								d="M385.768 287.625 L390.59999999999997 287.625 L390.59999999999997 292.457 L385.768 292.457 Z"
								style={{ strokeDasharray: " 20, 22", strokeDashoffset: 0 }}
							/>
							<path
								fill="none"
								stroke="#727272"
								strokeWidth="2"
								strokeMiterlimit="10"
								d="M379.753,245.522L379.753,237.141L
						 454.297,237.141L454.297,245.522"
								style={{ strokeDasharray: " 92, 94", strokeDashoffset: 0 }}
							/>
							<path
								fill="none"
								stroke="#727272"
								strokeWidth="2"
								strokeMiterlimit="10"
								d="M386.952,241.972L447.099,241.972"
								style={{ strokeDasharray: " 61, 63", strokeDashoffset: 0 }}
							/>
							<path
								fill="none"
								stroke="#727272"
								strokeWidth="2"
								strokeMiterlimit="10"
								d="M398.981,261.2L396.615,261.2"
								style={{ strokeDasharray: " 3, 5", strokeDashoffset: 0 }}
							/>
							<path
								fill="none"
								stroke="#727272"
								strokeWidth="2"
								strokeMiterlimit="10"
								d="M389.417,261.2L386.952,261.2"
								style={{ strokeDasharray: " 3, 5", strokeDashoffset: 0 }}
							/>
							<path
								fill="none"
								stroke="#727272"
								strokeWidth="2"
								strokeMiterlimit="10"
								d="M420.575,294.823A16.861,16.861 0,1,1 454.29699999999997,294.823A16.861,16.861 0,1,1 420.575,294.823"
								style={{ strokeDasharray: " 106, 108", strokeDashoffset: 0 }}
							/>
						</g>
						<path
							fill="none"
							stroke="#727272"
							strokeWidth="2"
							strokeMiterlimit="10"
							d="M450.649,294.823L448.283,294.823"
							style={{ strokeDasharray: " 3, 5", strokeDashoffset: 0 }}
						/>
						<path
							fill="none"
							stroke="#727272"
							strokeWidth="2"
							strokeMiterlimit="10"
							d="M438.62,306.853L436.253,306.853"
							style={{ strokeDasharray: " 3, 5", strokeDashoffset: 0 }}
						/>
						<path
							fill="none"
							stroke="#727272"
							strokeWidth="2"
							strokeMiterlimit="10"
							d="M438.62,282.794L436.253,282.794"
							style={{ strokeDasharray: " 3, 5", strokeDashoffset: 0 }}
						/>
						<path
							fill="none"
							stroke="#727272"
							strokeWidth="2"
							strokeMiterlimit="10"
							d="M430.238,286.442L427.872,286.442"
							style={{ strokeDasharray: " 3, 5", strokeDashoffset: 0 }}
						/>
						<path
							fill="none"
							stroke="#727272"
							strokeWidth="2"
							strokeMiterlimit="10"
							d="M447.099,286.442L444.634,286.442"
							style={{ strokeDasharray: " 3, 5", strokeDashoffset: 0 }}
						/>
						<path
							fill="none"
							stroke="#727272"
							strokeWidth="2"
							strokeMiterlimit="10"
							d="M430.238,303.205L427.872,303.205"
							style={{ strokeDasharray: " 3, 5", strokeDashoffset: 0 }}
						/>
						<path
							fill="none"
							stroke="#727272"
							strokeWidth="2"
							strokeMiterlimit="10"
							d="M447.099,303.205L444.634,303.205"
							style={{ strokeDasharray: " 3, 5", strokeDashoffset: 0 }}
						/>
						<path
							fill="none"
							stroke="#727272"
							strokeWidth="2"
							strokeMiterlimit="10"
							d="M426.59,294.823L424.224,294.823"
							style={{ strokeDasharray: " 3, 5", strokeDashoffset: 0 }}
						/>
						<path
							fill="none"
							stroke="#727272"
							strokeWidth="2"
							strokeMiterlimit="10"
							d="M437.436,287.625L437.436,294.823L
					432.605,299.655"
							style={{ strokeDasharray: " 15, 17", strokeDashoffset: 0 }}
						/>
					</g>
				</g>
			</g>
			<g>
				<g>
					<g>
						<g>
							<path
								fill="none"
								stroke="#727272"
								strokeWidth="2"
								strokeLinejoin="round"
								strokeMiterlimit="10"
								d="M380.444,170.978L378.965,170.978"
								style={{ strokeDasharray: " 2, 4", strokeDashoffset: 0 }}
							/>
							<path
								fill="none"
								stroke="#727272"
								strokeWidth="2"
								strokeLinejoin="round"
								strokeMiterlimit="10"
								d="M377.387,170.978L375.908,170.978"
								style={{ strokeDasharray: " 2, 4", strokeDashoffset: 0 }}
							/>
							<path
								fill="none"
								stroke="#727272"
								strokeWidth="2"
								strokeLinejoin="round"
								strokeMiterlimit="10"
								d="M368.316,158.85
						 h13.706c0.394,0,0.789,0.296,0.789,0.789v13.706c0,0.394-0.296,0.789-0.789,0.789h-10.649"
								style={{ strokeDasharray: " 41, 43", strokeDashoffset: 0 }}
							/>
							<path
								fill="none"
								stroke="#727272"
								strokeWidth="2"
								strokeLinejoin="round"
								strokeMiterlimit="10"
								d="M392.572,158.85h9.86
						 c0.887,0,1.479,0.69,1.479,1.479v0.789c0,0.887-0.69,1.479-1.479,1.479"
								style={{ strokeDasharray: " 16, 18", strokeDashoffset: 0 }}
							/>
							<path
								fill="none"
								stroke="#727272"
								strokeWidth="2"
								strokeLinejoin="round"
								strokeMiterlimit="10"
								d="M400.953,162.597
						 h2.268c0.887,0,1.479,0.69,1.479,1.479v0.789c0,0.887-0.69,1.479-1.479,1.479h-2.268"
								style={{ strokeDasharray: " 10, 12", strokeDashoffset: 0 }}
							/>
							<path
								fill="none"
								stroke="#727272"
								strokeWidth="2"
								strokeLinejoin="round"
								strokeMiterlimit="10"
								d="M402.531,166.442
						 c0.887,0,1.479,0.69,1.479,1.479v0.789c0,0.887-0.69,1.479-1.479,1.479h-2.268"
								style={{ strokeDasharray: " 8, 10", strokeDashoffset: 0 }}
							/>
							<path
								fill="none"
								stroke="#727272"
								strokeWidth="2"
								strokeLinejoin="round"
								strokeMiterlimit="10"
								d="M382.712,172.457
						 h3.846l6.113,1.479h9.072c0.887,0,1.479-0.69,1.479-1.479v-0.789c0-0.887-0.69-1.479-1.479-1.479l0,0"
								style={{ strokeDasharray: " 25, 27", strokeDashoffset: 0 }}
							/>
							<path
								fill="none"
								stroke="#727272"
								strokeWidth="2"
								strokeLinejoin="round"
								strokeMiterlimit="10"
								d="M393.361,155.004L389.614,155.793L384.979,160.329L382.712,160.329"
								style={{ strokeDasharray: " 13, 15", strokeDashoffset: 0 }}
							/>
							<path
								fill="none"
								stroke="#727272"
								strokeWidth="2"
								strokeLinejoin="round"
								strokeMiterlimit="10"
								d="M399.474,158.85L394.938,158.85L393.361,152.736L400.953,152.736Z"
								style={{ strokeDasharray: " 25, 27", strokeDashoffset: 0 }}
							/>
						</g>
						<g>
							<path
								fill="none"
								stroke="#727272"
								strokeWidth="2"
								strokeMiterlimit="10"
								d="M401.742,173.936
						 c2.268,3.846,8.381,8.48,8.381,14.495c0,7.592-6.113,11.438-13.706,11.438c-7.592,0-13.706-3.846-13.706-11.438
						 c0-6.113,6.113-10.649,8.381-14.495"
								style={{ strokeDasharray: " 75, 77", strokeDashoffset: 0 }}
							/>
						</g>
						<g>
							<path
								fill="none"
								stroke="#727272"
								strokeWidth="2"
								strokeMiterlimit="10"
								d="M394.15,189.219
						 c0,1.282,0.986,2.268,2.268,2.268s2.268-0.986,2.268-2.268s-2.268-2.268-2.268-2.268s-2.268-0.986-2.268-2.268
						 s0.986-2.268,2.268-2.268s2.268,0.986,2.268,2.268"
								style={{ strokeDasharray: " 22, 24", strokeDashoffset: 0 }}
							/>
							<path
								fill="none"
								stroke="#727272"
								strokeWidth="2"
								strokeMiterlimit="10"
								d="M396.417,182.416L396.417,180.049"
								style={{ strokeDasharray: " 3, 5", strokeDashoffset: 0 }}
							/>
							<path
								fill="none"
								stroke="#727272"
								strokeWidth="2"
								strokeMiterlimit="10"
								d="M396.417,191.487L396.417,193.755"
								style={{ strokeDasharray: " 3, 5", strokeDashoffset: 0 }}
							/>
							<path
								fill="none"
								stroke="#727272"
								strokeWidth="2"
								strokeMiterlimit="10"
								d="M400.953,186.952L402.531,186.952"
								style={{ strokeDasharray: " 2, 4", strokeDashoffset: 0 }}
							/>
							<path
								fill="none"
								stroke="#727272"
								strokeWidth="2"
								strokeMiterlimit="10"
								d="M390.304,186.952L391.882,186.952"
								style={{ strokeDasharray: " 2, 4", strokeDashoffset: 0 }}
							/>
						</g>
					</g>
				</g>
			</g>
			<g>
				<g>
					<g>
						<g>
							<g>
								<path
									fill="#FFFFFF"
									stroke="#727272"
									strokeWidth="2"
									strokeLinejoin="round"
									strokeMiterlimit="10"
									d="M269.91,173.344
								l-3.747-3.747V143.27l11.241-18.735l0,0l7.494,7.494l14.988-7.494l14.988,7.494h22.58c10.353,0,18.735,8.381,18.735,18.735
								v18.735l-3.747,3.747"
									style={{ strokeDasharray: " 174, 176", strokeDashoffset: 0 }}
								/>
								<path
									fill="#ffffff"
									stroke="#727272"
									strokeWidth="2"
									strokeLinejoin="round"
									strokeMiterlimit="10"
									d="M356.286,259.721
								l11.241,3.747c22.58,7.494,41.315,18.537,41.315,41.315v56.302H213.607v-56.302c0-22.777,18.735-33.821,41.315-41.315
								l11.241-3.747l22.482,0.197v-34.117h44.371v34.117L356.286,259.721z"
									style={{ strokeDasharray: " 616, 618", strokeDashoffset: 0 }}
								/>
								<path
									fill="none"
									stroke="#727272"
									strokeWidth="2"
									strokeLinejoin="round"
									strokeMiterlimit="10"
									d="M251.175,331.011L251.175,361.085"
									style={{ strokeDasharray: " 31, 33", strokeDashoffset: 0 }}
								/>
								<path
									fill="none"
									stroke="#727272"
									strokeWidth="2"
									strokeLinejoin="round"
									strokeMiterlimit="10"
									d="M371.372,331.011L371.372,361.085"
									style={{ strokeDasharray: " 31, 33", strokeDashoffset: 0 }}
								/>
								<path
									fill="#ffffff"
									stroke="#727272"
									strokeWidth="2"
									strokeLinejoin="round"
									strokeMiterlimit="10"
									d="M269.91,173.344
								l11.241-7.494h26.327l11.241-11.241l22.58,11.241l11.241,7.494v14.988l-3.747,3.747c0,18.735-11.241,45.062-37.568,45.062
								c-26.327,0-37.568-26.327-37.568-45.062l-3.747-3.747V173.344z"
									style={{ strokeDasharray: " 266, 268", strokeDashoffset: 0 }}
								/>
								<path
									fill="#ffffff"
									stroke="#727272"
									strokeWidth="2"
									strokeLinejoin="round"
									strokeMiterlimit="10"
									d="M292.49,248.381L311.224,274.708L330.058,248.381L345.045,248.381L360.131,255.974L322.564,293.443L299.984,293.443L
								262.416,255.974L277.502,248.381Z"
									style={{ strokeDasharray: " 258, 260", strokeDashoffset: 0 }}
								/>
							</g>
						</g>
					</g>
				</g>
				<g>
					<path
						fill="#ffffff"
						stroke="#727272"
						strokeWidth="2"
						strokeLinejoin="round"
						strokeMiterlimit="10"
						d="M281.34700000000004,192.671A11.241,11.241 0,1,1 303.829,192.671A11.241,11.241 0,1,1 281.34700000000004,192.671"
						style={{ strokeDasharray: " 71, 73", strokeDashoffset: 0 }}
					/>
					<path
						fill="#ffffff"
						stroke="#727272"
						strokeWidth="2"
						strokeLinejoin="round"
						strokeMiterlimit="10"
						d="M318.718,192.671A11.241,11.241 0,1,1 341.2,192.671A11.241,11.241 0,1,1 318.718,192.671"
						style={{ strokeDasharray: " 71, 73", strokeDashoffset: 0 }}
					/>
					<path
						fill="none"
						stroke="#727272"
						strokeWidth="2"
						strokeLinejoin="round"
						strokeMiterlimit="10"
						d="M318.718,192.671L303.829,192.671"
						style={{ strokeDasharray: " 15, 17", strokeDashoffset: 0 }}
					/>
					<path
						fill="#F6F6F6"
						stroke="#727272"
						strokeWidth="2"
						strokeLinejoin="round"
						strokeMiterlimit="10"
						d="M281.348,192.671
			 h-3.747c-4.141,0-7.494-3.353-7.494-7.494"
						style={{ strokeDasharray: " 16, 18", strokeDashoffset: 0 }}
					/>
					<path
						fill="#F6F6F6"
						stroke="#727272"
						strokeWidth="2"
						strokeLinejoin="round"
						strokeMiterlimit="10"
						d="M341.2,192.671h3.747
			 c4.141,0,7.494-3.353,7.494-7.494"
						style={{ strokeDasharray: " 16, 18", strokeDashoffset: 0 }}
					/>
				</g>
			</g>
			<g>
				<g>
					<g>
						<path
							fill="#F6F6F6"
							stroke="#727272"
							strokeWidth="2"
							strokeMiterlimit="10"
							d="M185.998,356.45L185.998,348.069L
					177.518,348.069"
							style={{ strokeDasharray: " 17, 19", strokeDashoffset: 0 }}
						/>
						<path
							fill="#F6F6F6"
							stroke="#727272"
							strokeWidth="2"
							strokeMiterlimit="10"
							d="M218.439,326.376L218.439,317.995L
					177.518,317.995L177.518,348.069L185.998,356.45L193.196,356.45"
							style={{ strokeDasharray: " 99, 101", strokeDashoffset: 0 }}
						/>
						<path
							fill="none"
							stroke="#727272"
							strokeWidth="2"
							strokeMiterlimit="10"
							d="M177.518,322.827L218.439,322.827"
							style={{ strokeDasharray: " 41, 43", strokeDashoffset: 0 }}
						/>
					</g>
					<g>
						<path
							fill="#ffffff"
							stroke="#727272"
							strokeWidth="2"
							strokeMiterlimit="10"
							d="M241.216,368.48L252.062,368.48L
					252.062,330.025L211.241,330.025L211.241,345.604"
							style={{ strokeDasharray: " 106, 108", strokeDashoffset: 0 }}
						/>
						<path
							fill="none"
							stroke="#727272"
							strokeWidth="2"
							strokeMiterlimit="10"
							d="M211.241,334.856L252.062,334.856"
							style={{ strokeDasharray: " 41, 43", strokeDashoffset: 0 }}
						/>
					</g>
					<g>
						<path
							fill="#ffffff"
							stroke="#727272"
							strokeWidth="2"
							strokeMiterlimit="10"
							d="M205.226,387.707L205.226,379.228L
					196.746,379.228"
							style={{ strokeDasharray: " 17, 19", strokeDashoffset: 0 }}
						/>
						<path
							fill="#ffffff"
							stroke="#727272"
							strokeWidth="2"
							strokeMiterlimit="10"
							d="M196.746,379.228L205.226,387.707L
					237.666,387.707L237.666,349.252L196.746,349.252Z"
							style={{ strokeDasharray: " 154, 156", strokeDashoffset: 0 }}
						/>
						<path
							fill="none"
							stroke="#727272"
							strokeWidth="2"
							strokeMiterlimit="10"
							d="M196.746,353.985L237.666,353.985"
							style={{ strokeDasharray: " 41, 43", strokeDashoffset: 0 }}
						/>
					</g>
					<path
						fill="none"
						stroke="#727272"
						strokeWidth="2"
						strokeMiterlimit="10"
						d="M190.83,330.025L205.226,330.025"
						style={{ strokeDasharray: " 15, 17", strokeDashoffset: 0 }}
					/>
					<path
						fill="none"
						stroke="#727272"
						strokeWidth="2"
						strokeMiterlimit="10"
						d="M183.533,330.025L188.365,330.025"
						style={{ strokeDasharray: " 5, 7", strokeDashoffset: 0 }}
					/>
					<path
						fill="none"
						stroke="#727272"
						strokeWidth="2"
						strokeMiterlimit="10"
						d="M200.394,334.856L205.226,334.856"
						style={{ strokeDasharray: " 5, 7", strokeDashoffset: 0 }}
					/>
					<path
						fill="none"
						stroke="#727272"
						strokeWidth="2"
						strokeMiterlimit="10"
						d="M183.533,334.856L198.028,334.856"
						style={{ strokeDasharray: " 15, 17", strokeDashoffset: 0 }}
					/>
					<path
						fill="none"
						stroke="#727272"
						strokeWidth="2"
						strokeMiterlimit="10"
						d="M183.533,339.589L205.226,339.589"
						style={{ strokeDasharray: " 22, 24", strokeDashoffset: 0 }}
					/>
					<path
						fill="#F6F6F6"
						stroke="#727272"
						strokeWidth="2"
						strokeMiterlimit="10"
						d="M217.256,340.772
			 c2.366,0,2.366,2.366,4.832,2.366c2.366,0,2.366-2.366,4.832-2.366c2.465,0,2.366,2.366,4.832,2.366s2.366-2.366,4.832-2.366
			 c2.366,0,2.366,2.366,4.832,2.366c2.366,0,2.366-2.366,4.832-2.366"
						style={{ strokeDasharray: " 34, 36", strokeDashoffset: 0 }}
					/>
					<path
						fill="none"
						stroke="#727272"
						strokeWidth="2"
						strokeMiterlimit="10"
						d="M207.592,361.282L231.652,361.282"
						style={{ strokeDasharray: " 25, 27", strokeDashoffset: 0 }}
					/>
					<path
						fill="none"
						stroke="#727272"
						strokeWidth="2"
						strokeMiterlimit="10"
						d="M205.226,361.282L202.761,361.282"
						style={{ strokeDasharray: " 3, 5", strokeDashoffset: 0 }}
					/>
					<path
						fill="none"
						stroke="#727272"
						strokeWidth="2"
						strokeMiterlimit="10"
						d="M207.592,366.015L231.652,366.015"
						style={{ strokeDasharray: " 25, 27", strokeDashoffset: 0 }}
					/>
					<path
						fill="none"
						stroke="#727272"
						strokeWidth="2"
						strokeMiterlimit="10"
						d="M205.226,366.015L202.761,366.015"
						style={{ strokeDasharray: " 3, 5", strokeDashoffset: 0 }}
					/>
					<path
						fill="none"
						stroke="#727272"
						strokeWidth="2"
						strokeMiterlimit="10"
						d="M207.592,370.846L231.652,370.846"
						style={{ strokeDasharray: " 25, 27", strokeDashoffset: 0 }}
					/>
					<path
						fill="none"
						stroke="#727272"
						strokeWidth="2"
						strokeMiterlimit="10"
						d="M205.226,370.846L202.761,370.846"
						style={{ strokeDasharray: " 3, 5", strokeDashoffset: 0 }}
					/>
					<path
						fill="none"
						stroke="#727272"
						strokeWidth="2"
						strokeMiterlimit="10"
						d="M231.652,375.678L221.988,375.678"
						style={{ strokeDasharray: " 10, 12", strokeDashoffset: 0 }}
					/>
				</g>
			</g>
			<path
				fill="none"
				stroke="#FD6A02"
				strokeWidth="2"
				strokeMiterlimit="10"
				strokeDasharray="4,5"
				d="M169.532,343.237h-38.258
 c0,0-9.564,1.282-9.564-9.565c0-10.945,0-107.872,0-107.872s1.085-8.776,8.776-8.776s12.424,0,12.424,0"
				style={{ strokeDasharray: " 188, 190", strokeDashoffset: 0 }}
			/>
			<path
				fill="none"
				stroke="#FD6A02"
				strokeWidth="2"
				strokeMiterlimit="10"
				strokeDasharray="4,5"
				d="M437.634,317.995v16.861
 c0,0,0.592,7.691,7.691,7.691c7.198,0,63.993,0,63.993,0s8.677,0.69,8.677,8.677c0,7.987,0,5.226,0,5.226s0.887,7.691-7.691,7.691
 c-8.578,0-87.067,0-87.067,0s-5.522,0.493-5.522,5.522c0,5.029,0,5.029,0,5.029"
				style={{ strokeDasharray: " 226, 228", strokeDashoffset: 0 }}
			/>
			<path
				fill="none"
				stroke="#FD6A02"
				strokeWidth="2"
				strokeMiterlimit="10"
				strokeDasharray="4,5"
				d="M416.434,182.712h7.79
 c0,0,7.494-0.197,7.494-7.494c0-7.297,0-86.574,0-86.574s2.662-7.494,7.494-7.494c4.832,0,4.832,0,4.832,0s7.297,0.296,7.297,7.297
 c0,7.001,0,124.339,0,124.339s0.493,6.606-6.606,6.606c-7.099,0-12.227,0-12.227,0s-5.325,1.676-5.325,5.325
 c0,3.648,0,5.325,0,5.325"
				style={{ strokeDasharray: " 295, 297", strokeDashoffset: 0 }}
			/>
		</g>
	</svg>